<svg width="25" height="25" viewBox="0 0 25 25" fill="none" xmlns="http://www.w3.org/2000/svg">
<path d="M17.7085 2.08301H7.29183C4.41535 2.08301 2.0835 4.41486 2.0835 7.29134V17.708C2.0835 20.5845 4.41535 22.9163 7.29183 22.9163H17.7085C20.585 22.9163 22.9168 20.5845 22.9168 17.708V7.29134C22.9168 4.41486 20.585 2.08301 17.7085 2.08301Z" stroke="white" stroke-width="1.38889" stroke-linecap="round" stroke-linejoin="round"/>
<path d="M16.6667 11.8436C16.7952 12.7105 16.6472 13.5959 16.2435 14.3738C15.8399 15.1517 15.2012 15.7825 14.4184 16.1766C13.6355 16.5706 12.7484 16.7077 11.8831 16.5685C11.0179 16.4293 10.2185 16.0207 9.59881 15.401C8.9791 14.7813 8.57057 13.982 8.43134 13.1167C8.29211 12.2514 8.42926 11.3643 8.82328 10.5815C9.2173 9.79863 9.84813 9.15997 10.626 8.75633C11.404 8.35268 12.2893 8.20461 13.1563 8.33316C14.0406 8.46429 14.8592 8.87635 15.4914 9.50848C16.1235 10.1406 16.5356 10.9593 16.6667 11.8436Z" stroke="white" stroke-width="1.38889" stroke-linecap="round" stroke-linejoin="round"/>
<path d="M18.229 6.77051H18.2388" stroke="white" stroke-width="1.38889" stroke-linecap="round" stroke-linejoin="round"/>
</svg>
