<svg width="259" height="85" viewBox="0 0 259 85" fill="none" xmlns="http://www.w3.org/2000/svg">
<path d="M7.19667 48.637C7.65567 48.637 8.03367 49.015 8.03367 49.474C8.03367 49.96 7.65567 50.311 7.19667 50.311C3.84867 50.311 1.14867 47.611 1.14867 44.29V30.979C1.14867 30.52 1.52667 30.142 1.98567 30.142C2.44467 30.142 2.82267 30.52 2.82267 30.979V44.29C2.82267 46.693 4.79367 48.637 7.19667 48.637ZM20.4395 38.539C20.8985 38.539 21.2765 38.917 21.2765 39.376V44.209C21.2765 44.236 21.2765 44.236 21.2765 44.236C21.2765 45.667 20.4665 47.638 19.4405 48.637C18.4415 49.663 16.4435 50.473 15.0125 50.473C11.5835 50.473 8.77552 47.665 8.77552 44.209V39.376C8.77552 38.917 9.15352 38.539 9.61252 38.539C10.0715 38.539 10.4495 38.917 10.4495 39.376V44.209C10.4495 46.747 12.5015 48.799 15.0125 48.799C17.5505 48.799 19.6025 46.747 19.6025 44.209V39.376C19.6025 38.917 19.9805 38.539 20.4395 38.539ZM35.9506 38.539C38.8666 38.539 41.2426 40.915 41.2426 43.831V49.582C41.2426 50.041 40.8646 50.419 40.4056 50.419C39.9736 50.419 39.5956 50.041 39.5956 49.582V43.831C39.5956 41.833 37.9486 40.213 35.9506 40.213C33.9526 40.213 32.3326 41.833 32.3326 43.831V49.582C32.3056 50.041 31.9546 50.419 31.4956 50.419C31.0366 50.419 30.6856 50.041 30.6586 49.582V43.831C30.6586 41.833 29.0386 40.213 27.0406 40.213C25.0426 40.213 23.4226 41.833 23.4226 43.831V49.582C23.4226 50.041 23.0446 50.419 22.5856 50.419C22.1266 50.419 21.7486 50.041 21.7486 49.582V43.831C21.7486 40.915 24.1246 38.539 27.0406 38.539C27.8776 38.539 29.1466 38.917 29.8756 39.376C30.4156 39.727 31.1446 40.456 31.4956 40.996C31.8466 40.456 32.5756 39.727 33.1156 39.376C33.8446 38.917 35.1136 38.539 35.9506 38.539ZM54.169 38.539C54.628 38.539 55.006 38.917 55.006 39.376V44.209C55.006 44.236 55.006 44.236 55.006 44.236C55.006 45.667 54.196 47.638 53.17 48.637C52.171 49.663 50.173 50.473 48.742 50.473C45.313 50.473 42.505 47.665 42.505 44.209V39.376C42.505 38.917 42.883 38.539 43.342 38.539C43.801 38.539 44.179 38.917 44.179 39.376V44.209C44.179 46.747 46.231 48.799 48.742 48.799C51.28 48.799 53.332 46.747 53.332 44.209V39.376C53.332 38.917 53.71 38.539 54.169 38.539ZM60.9321 38.539C63.8481 38.539 66.1971 40.915 66.1971 43.831V49.609C66.1971 50.068 65.8461 50.419 65.3871 50.419C64.9281 50.419 64.5501 50.068 64.5501 49.609V43.831C64.5501 41.833 62.9301 40.213 60.9321 40.213C58.9071 40.213 57.2871 41.833 57.2871 43.831V49.609C57.2871 50.068 56.9091 50.446 56.4501 50.446C55.9911 50.446 55.6401 50.068 55.6401 49.609V43.831C55.6401 40.915 58.0161 38.539 60.9321 38.539ZM72.3615 50.473C69.0675 50.473 66.3945 47.8 66.3945 44.506C66.3945 43.156 67.1775 41.266 68.1225 40.294C69.0945 39.322 70.9845 38.539 72.3615 38.539C75.6555 38.539 78.3285 41.212 78.3285 44.506V49.636C78.3285 50.095 77.9505 50.473 77.4915 50.473C77.0325 50.473 76.6545 50.095 76.6545 49.636V44.506C76.6545 42.13 74.7105 40.213 72.3615 40.213C69.9855 40.213 68.0685 42.157 68.0685 44.506C68.0685 46.882 69.9855 48.799 72.3615 48.799C72.9555 48.799 73.8465 48.583 74.3865 48.313C74.4945 48.259 74.6565 48.205 74.7645 48.205C75.2235 48.205 75.6015 48.583 75.6015 49.042C75.6015 49.312 75.4125 49.636 75.1695 49.771C74.4405 50.176 73.1715 50.473 72.3615 50.473ZM84.6013 39.376H80.2273V44.29C80.2273 46.693 82.1983 48.637 84.6013 48.637C85.0603 48.637 85.4383 49.015 85.4383 49.474C85.4383 49.96 85.0603 50.311 84.6013 50.311H84.5743C81.2533 50.311 78.5533 47.611 78.5533 44.29V30.979C78.5533 30.52 78.9313 30.142 79.3903 30.142C79.8493 30.142 80.2273 30.52 80.2273 30.979V37.702H84.6013C85.0603 37.702 85.4383 38.08 85.4383 38.539C85.4383 38.998 85.0603 39.376 84.6013 39.376ZM95.08 47.8C95.215 47.665 95.458 47.584 95.647 47.584C96.106 47.584 96.484 47.962 96.484 48.421C96.484 48.664 96.322 48.961 96.133 49.096C95.215 49.825 93.541 50.419 92.38 50.419C89.113 50.419 86.44 47.773 86.44 44.479C86.44 41.212 89.113 38.539 92.38 38.539C93.541 38.539 95.215 39.133 96.133 39.889C96.295 40.024 96.43 40.321 96.43 40.537C96.43 40.726 96.322 40.996 96.16 41.131L90.733 46.234C90.598 46.396 90.328 46.504 90.139 46.504C89.653 46.504 89.302 46.126 89.302 45.667C89.302 45.451 89.41 45.181 89.599 45.019L94.243 40.645C93.757 40.402 92.92 40.213 92.38 40.213C90.031 40.213 88.114 42.13 88.114 44.479C88.114 46.828 90.031 48.745 92.38 48.745C93.217 48.745 94.432 48.313 95.08 47.8Z" fill="#363636"/>
<circle cx="103" cy="42.5" r="4" fill="url(#paint0_linear_1778_6373)"/>
<defs>
<linearGradient id="paint0_linear_1778_6373" x1="100.327" y1="46.5" x2="105.673" y2="38.5" gradientUnits="userSpaceOnUse">
<stop stop-color="#00A270"/>
<stop offset="1" stop-color="#04714F"/>
</linearGradient>
</defs>
</svg>
