<svg width="16" height="16" viewBox="0 0 16 16" fill="none" xmlns="http://www.w3.org/2000/svg">
<g clip-path="url(#clip0_1029_447)">
<path d="M3.94828 14.6295C3.77499 14.8002 3.56977 14.9351 3.34434 15.0264C3.1189 15.1177 2.87769 15.1637 2.63446 15.1618C2.39124 15.1599 2.15078 15.1101 1.92682 15.0152C1.70287 14.9203 1.49981 14.7822 1.32924 14.6088C1.15856 14.4355 1.0237 14.2302 0.932362 14.0048C0.841026 13.7794 0.795006 13.5382 0.796933 13.2949C0.79886 13.0517 0.848695 12.8113 0.943592 12.5873C1.03849 12.3633 1.17658 12.1603 1.34999 11.9897L6.76362 6.5314C6.52909 5.86122 6.4638 5.14346 6.57355 4.44196C6.6833 3.74045 6.96469 3.07694 7.39271 2.51041C7.82072 1.94388 8.3821 1.49189 9.02692 1.19464C9.67174 0.89738 10.38 0.764066 11.0888 0.806549C11.2094 0.812564 11.3257 0.853454 11.4235 0.92426C11.5214 0.995065 11.5966 1.09274 11.64 1.20544C11.6834 1.31814 11.6932 1.44102 11.6682 1.55918C11.6431 1.67733 11.5844 1.78568 11.499 1.87108L10.428 2.92444C10.0778 3.26921 9.87881 3.739 9.87492 4.23046C9.87102 4.72192 10.0625 5.1948 10.4073 5.54507C10.7521 5.89534 11.2218 6.09431 11.7133 6.0982C12.2048 6.10209 12.6777 5.91059 13.0279 5.56582L14.0972 4.51246C14.1837 4.42853 14.2927 4.37144 14.4109 4.34808C14.5291 4.32471 14.6516 4.33608 14.7635 4.38081C14.8754 4.42554 14.9719 4.50171 15.0415 4.60012C15.111 4.69854 15.1506 4.81499 15.1554 4.9354C15.186 5.64397 15.0413 6.34915 14.7341 6.98838C14.4268 7.62761 13.9666 8.18112 13.3941 8.59981C12.8217 9.0185 12.1547 9.28942 11.4524 9.38854C10.7502 9.48765 10.0343 9.4119 9.3683 9.16799L3.94828 14.6295Z" stroke="white" stroke-width="1.2768" stroke-linecap="round" stroke-linejoin="round"/>
</g>
<defs>
<clipPath id="clip0_1029_447">
<rect width="15.96" height="15.96" fill="white"/>
</clipPath>
</defs>
</svg>
