<svg width="55" height="56" viewBox="0 0 55 56" fill="none" xmlns="http://www.w3.org/2000/svg">
<g clip-path="url(#clip0_42_591)">
<path d="M18.6461 2.51079H34.5826L18.0394 51.5266C17.8695 52.0304 17.5458 52.4682 17.1139 52.7784C16.682 53.0885 16.1637 53.2552 15.632 53.2552H3.22988C2.8271 53.2551 2.43011 53.1591 2.07172 52.9753C1.71333 52.7915 1.40381 52.525 1.16874 52.198C0.933735 51.8708 0.780034 51.4924 0.720364 51.0941C0.660694 50.6957 0.696771 50.2889 0.825608 49.9073L16.2387 4.23899C16.4087 3.73518 16.7324 3.29737 17.1643 2.9872C17.5962 2.67704 18.1144 2.51014 18.6461 2.51001V2.51079Z" fill="url(#paint0_linear_42_591)"/>
<path d="M41.804 35.3872H16.5328C16.2978 35.3868 16.0681 35.4571 15.8737 35.5892C15.6793 35.7212 15.5292 35.9087 15.443 36.1273C15.3568 36.3459 15.3384 36.5854 15.3903 36.8146C15.4423 37.0438 15.5621 37.252 15.7341 37.4121L31.9727 52.569C32.4455 53.01 33.068 53.2552 33.7146 53.2552H48.0241L41.804 35.3872Z" fill="#606060"/>
<path d="M18.6462 2.51076C18.1087 2.50874 17.5846 2.67863 17.1505 2.9956C16.7164 3.31258 16.395 3.76004 16.2333 4.27264L0.844825 49.8657C0.707447 50.2487 0.664331 50.6592 0.719123 51.0624C0.773915 51.4656 0.925003 51.8497 1.15961 52.1822C1.39422 52.5146 1.70544 52.7857 2.06696 52.9725C2.42848 53.1592 2.82966 53.2562 3.23657 53.2551H15.9591C16.4329 53.1705 16.8758 52.9616 17.2424 52.6498C17.6091 52.338 17.8864 51.9344 18.0461 51.4803L21.1147 42.4363L32.0765 52.6601C32.5357 53.0401 33.1119 53.2503 33.7079 53.2551H47.9644L41.7116 35.3872L23.4845 35.3915L34.6402 2.51076H18.6462Z" fill="url(#paint1_linear_42_591)"/>
<path d="M39.0011 4.23659C38.8314 3.73348 38.508 3.29632 38.0767 2.98669C37.6454 2.67707 37.1278 2.5106 36.5968 2.51074H18.8362C19.367 2.5108 19.8845 2.67735 20.3158 2.98695C20.747 3.29656 21.0703 3.73361 21.2401 4.23659L36.6536 49.9068C36.7826 50.2885 36.8189 50.6955 36.7594 51.094C36.6998 51.4925 36.5462 51.8711 36.3113 52.1984C36.0763 52.5257 35.7668 52.7924 35.4083 52.9763C35.0498 53.1602 34.6526 53.256 34.2497 53.2559H52.0111C52.4139 53.2556 52.8108 53.1595 53.1691 52.9755C53.5273 52.7915 53.8367 52.5248 54.0715 52.1976C54.3063 51.8704 54.4599 51.492 54.5196 51.0936C54.5792 50.6953 54.5433 50.2885 54.4146 49.9068L39.0011 4.23659Z" fill="url(#paint2_linear_42_591)"/>
</g>
<defs>
<linearGradient id="paint0_linear_42_591" x1="24.4547" y1="6.27114" x2="7.90447" y2="55.1639" gradientUnits="userSpaceOnUse">
<stop stop-color="#3F3F3F"/>
<stop offset="1" stop-color="#2C2F32"/>
</linearGradient>
<linearGradient id="paint1_linear_42_591" x1="29.6244" y1="29.0565" x2="25.7963" y2="30.3507" gradientUnits="userSpaceOnUse">
<stop stop-opacity="0.3"/>
<stop offset="0.071" stop-opacity="0.2"/>
<stop offset="0.321" stop-opacity="0.1"/>
<stop offset="0.623" stop-opacity="0.05"/>
<stop offset="1" stop-opacity="0"/>
</linearGradient>
<linearGradient id="paint2_linear_42_591" x1="27.5191" y1="4.8449" x2="45.6863" y2="53.2453" gradientUnits="userSpaceOnUse">
<stop stop-color="#A0A0A0"/>
<stop offset="1" stop-color="#8B8B8B"/>
</linearGradient>
<clipPath id="clip0_42_591">
<rect width="54.5548" height="54.5548" fill="white" transform="translate(0.013916 0.605713)"/>
</clipPath>
</defs>
</svg>
