<svg width="95" height="94" viewBox="0 0 95 94" fill="none" xmlns="http://www.w3.org/2000/svg">
<g clip-path="url(#clip0_42_587)">
<path d="M29.6762 79.8256L29.4681 79.4103C29.0528 78.5788 29.0528 77.7474 29.2608 76.7079H6.81483L40.0688 17.6837L53.9938 42.832L58.5656 39.5063L44.6406 14.3579C44.4333 13.9426 42.7704 11.449 40.0688 11.449C38.8213 11.449 36.9511 11.8643 35.4962 14.566L1.82692 74.2143C1.61888 74.8385 0.164038 77.5401 1.41083 79.8256C2.24227 81.0732 3.4898 82.32 6.39948 82.32H34.6648C31.7551 82.32 30.3003 81.0724 29.6762 79.8256Z" fill="#B8B8B8"/>
<path d="M93.6883 74.4195L66.6698 25.7864C66.2544 25.3711 64.7996 22.6687 62.0972 22.6687C60.8504 22.6687 58.9802 23.2921 57.5254 25.7864L53.9923 31.6058V42.8291L62.0979 28.9041L88.9084 76.7058H78.7246C78.8949 77.6953 78.7493 78.7133 78.3085 79.6154L78.1004 79.8235C76.8536 82.109 73.7359 82.3171 73.3206 82.3171H89.1157C89.7391 82.3171 92.6488 82.1098 94.1037 79.8235C94.7271 78.784 95.1431 76.9138 93.6883 74.4195Z" fill="#051513"/>
<path d="M78.9348 79.8259V79.6178L79.1429 79.2025C79.3502 78.371 79.5582 77.5396 79.3502 76.7081L78.5195 74.2146L57.321 37.2202L54.2033 31.6089H53.9953L50.8776 37.2202L29.6791 74.2138L28.8484 76.7081C28.6471 77.765 28.7927 78.8586 29.2638 79.8259C30.0952 81.0727 31.342 82.3202 34.2517 82.3202H73.7404C74.3638 82.3202 77.4815 82.1121 78.9363 79.8259H78.9348ZM53.9945 42.8315L73.3235 76.7081H34.6663L53.9945 42.8315Z" fill="#45515B"/>
</g>
<defs>
<clipPath id="clip0_42_587">
<rect width="93.766" height="93.766" fill="white" transform="translate(0.582642)"/>
</clipPath>
</defs>
</svg>
