<svg width="79" height="48" viewBox="0 0 79 48" fill="none" xmlns="http://www.w3.org/2000/svg">
<path d="M22.8973 17.5539C22.8973 18.5307 22.9754 19.312 23.1708 19.9762C23.3661 20.445 23.6396 21.0701 23.9912 21.7734C24.1475 21.9297 24.1866 22.1641 24.1866 22.3594C24.1866 22.6329 24.0303 22.8673 23.6787 23.1408L22.0378 24.2348C21.8034 24.391 21.5689 24.4692 21.3736 24.4692C21.1001 24.4692 20.8657 24.3129 20.5922 24.0785C20.2406 23.6878 19.928 23.2971 19.6546 22.8673C19.4201 22.4376 19.1467 21.9297 18.8732 21.3436C16.8416 23.7269 14.3021 24.938 11.2156 24.938C9.02774 24.938 7.30869 24.3129 6.01941 23.0627C4.7692 21.8125 4.10502 20.1325 4.10502 18.0228C4.10502 15.8739 4.8864 14.1158 6.44917 12.7093C8.05101 11.381 10.1607 10.6777 12.8174 10.6777C13.716 10.6777 14.5365 10.7559 15.5914 10.9122C16.4899 11.0294 17.5448 11.2247 18.5606 11.4591V9.58381C18.5606 7.59128 18.1699 6.302 17.3495 5.40341C16.4899 4.58296 15.1225 4.23133 13.13 4.23133C12.1923 4.23133 11.2547 4.34854 10.317 4.54389C9.34029 4.7783 8.40263 5.05179 7.50404 5.44248C7.07428 5.59876 6.72266 5.71596 6.60545 5.75503C6.4101 5.83317 6.29289 5.83317 6.17569 5.83317C5.82406 5.83317 5.62872 5.59875 5.62872 5.05179V3.7625C5.62872 3.37181 5.66779 3.05926 5.82406 2.86391C5.94127 2.66857 6.17569 2.51229 6.52731 2.39508C7.46497 1.84811 8.51984 1.45742 9.80912 1.14487C11.1354 0.798091 12.5015 0.627327 13.8723 0.63697C16.9588 0.63697 19.2248 1.34022 20.6704 2.74671C22.1159 4.1532 22.8192 6.302 22.8192 9.15405V17.5539H22.8973ZM12.3486 21.539C13.2081 21.539 14.0677 21.3827 15.0053 21.0701C15.943 20.7576 16.7634 20.1716 17.4667 19.3902C17.8964 18.8823 18.209 18.3353 18.4434 17.7102C18.4434 17.0851 18.6388 16.3428 18.6388 15.4442V14.3893C17.8574 14.1158 17.076 14.1158 16.2165 13.9205C15.4117 13.8326 14.6035 13.7804 13.7942 13.7642C12.0361 13.7642 10.7859 14.1158 9.92633 14.8191C9.06681 15.5223 8.67611 16.4991 8.67611 17.7883C8.67611 19.0385 8.9496 19.9762 9.61377 20.5622C10.2389 21.2264 11.1375 21.539 12.3486 21.539ZM33.2116 24.3129C32.8333 24.3242 32.458 24.2438 32.1176 24.0785C32.0004 23.8831 31.8051 23.5315 31.6488 23.0627L25.554 2.98112C25.3977 2.39508 25.3196 2.1216 25.3196 1.92625C25.3196 1.49649 25.5149 1.26208 25.9447 1.26208H28.4842C28.9921 1.26208 29.3437 1.34022 29.5 1.53556C29.7344 1.69184 29.8907 2.04346 30.047 2.55136L34.3836 19.7418L38.4468 2.55136C38.564 2.04346 38.7203 1.69184 38.9547 1.53556C39.1501 1.37928 39.5017 1.26208 39.9315 1.26208H42.0803C42.5491 1.26208 42.9007 1.34022 43.0961 1.53556C43.2914 1.69184 43.4867 2.04346 43.604 2.55136L47.7453 19.9762L52.1992 2.55136C52.3555 2.04346 52.5508 1.69184 52.7071 1.53556C52.9415 1.37928 53.254 1.26208 53.7229 1.26208H56.1452C56.5749 1.26208 56.8093 1.49649 56.8093 1.92625C56.8093 2.04346 56.7703 2.19974 56.7312 2.39508C56.7312 2.39508 56.6531 2.70764 56.5749 2.98112L50.2848 23.0627C50.1285 23.6096 49.9722 23.8831 49.6987 24.0785C49.5425 24.2348 49.1909 24.352 48.7611 24.352H46.5341C46.0262 24.352 45.7918 24.2738 45.4793 24.0785C45.2166 23.8 45.0519 23.4433 45.0104 23.0627L40.9863 6.302L36.9622 23.0236C36.845 23.5315 36.6887 23.8831 36.4934 24.0785C36.1708 24.2542 35.8052 24.3355 35.4385 24.3129H33.2116ZM66.6157 25.0161C65.3264 25.0161 63.8809 24.8599 62.5916 24.5473C61.3023 24.2348 60.2865 23.8831 59.6223 23.5315C59.283 23.3683 58.9981 23.1105 58.8019 22.7892C58.6957 22.5701 58.6422 22.3293 58.6456 22.0859V20.7576C58.6456 20.2106 58.8409 19.9762 59.2316 19.9762H59.7005C59.8567 19.9762 60.0911 20.1716 60.3646 20.2888C61.2242 20.6795 62.2009 20.992 63.2167 21.1874C64.2715 21.3827 65.3264 21.4999 66.3031 21.4999C67.9441 21.4999 69.2333 21.2264 70.0929 20.6404C70.9914 19.9762 71.4603 19.2339 71.4603 18.179C71.4603 17.4367 71.1868 16.8507 70.757 16.3428C70.2882 15.8739 69.3896 15.4051 68.1394 15.0144L64.3497 13.8424C62.4744 13.2172 61.0679 12.3577 60.2084 11.1856C59.3696 10.1007 58.9159 8.76732 58.9191 7.39594C58.9191 6.302 59.1535 5.36434 59.6223 4.54389C60.0912 3.68437 60.7163 2.98112 61.4195 2.39508C62.279 1.80904 63.1385 1.37928 64.1934 1.06673C65.2092 0.754177 66.3031 0.5979 67.4752 0.5979C68.0222 0.5979 68.6082 0.63697 69.2333 0.715109C69.7803 0.793247 70.3273 0.910453 70.8742 0.988592C71.4212 1.14487 71.89 1.26208 72.3589 1.41835C72.8277 1.57463 73.1403 1.73091 73.4528 1.88718C73.8044 2.08253 74.0779 2.27788 74.2342 2.51229C74.3905 2.74671 74.4686 3.02019 74.4686 3.37181V4.62203C74.4686 5.16899 74.2733 5.44248 73.8826 5.44248C73.6872 5.44248 73.3356 5.32527 72.8668 5.12992C71.4212 4.46575 69.7412 4.11413 67.905 4.11413C66.4204 4.11413 65.3264 4.34854 64.4278 4.85644C63.6464 5.32527 63.2167 6.10665 63.2167 7.16152C63.2167 7.90384 63.4902 8.52894 63.9981 8.99777C64.506 9.50567 65.4827 9.9745 66.8501 10.4433L70.5617 11.6154C72.437 12.1624 73.7654 13.0219 74.5858 14.1158C75.3672 15.1707 75.7579 16.3818 75.7579 17.7493C75.7579 18.8432 75.5235 19.859 75.0937 20.7576C74.6249 21.6171 73.9998 22.3985 73.1403 23.0236C72.3979 23.6878 71.4212 24.1566 70.3273 24.5082C69.2333 24.8599 67.905 25.0161 66.6157 25.0161ZM71.4994 37.6745C62.9432 43.9647 50.5192 47.3246 39.9315 47.3246C24.8898 47.3246 11.411 41.7768 1.2139 32.5956C0.393449 31.8532 1.13576 30.8765 2.11249 31.4625C13.13 37.8308 26.687 41.6987 40.7519 41.6987C50.2457 41.6987 60.6772 39.7452 70.2491 35.6039C71.6947 35.0178 72.9058 36.6197 71.4994 37.6745ZM75.0937 33.6504C73.9607 32.2049 67.8269 32.9472 65.0529 33.2597C64.2325 33.3769 64.1153 32.6346 64.8576 32.0877C69.7412 28.6886 77.7895 29.7435 78.6881 30.7984C79.6257 31.9705 78.4537 40.0187 73.8826 43.8475C73.1403 44.4335 72.4761 44.121 72.7886 43.4177C73.8435 40.761 76.1486 34.9788 75.0937 33.6504Z" fill="#D6D6D6"/>
</svg>
