<svg width="95" height="20" viewBox="0 0 95 20" fill="none" xmlns="http://www.w3.org/2000/svg">
<g clip-path="url(#clip0_11_25)">
<path d="M79.7087 0.471621V3.43968H73.171V19.0548H69.9018V3.43986H63.2279V0.471621H79.7087ZM80.4436 17.2846C80.6739 17.2846 80.8753 17.3654 81.0459 17.5273C81.2189 17.689 81.305 17.8829 81.3074 18.1086C81.3067 18.2568 81.2646 18.4019 81.1854 18.5283C81.1075 18.6528 80.9985 18.7561 80.8687 18.8285C80.7403 18.9036 80.5933 18.9426 80.4436 18.9414C80.2041 18.9414 80.0005 18.8604 79.8301 18.6987C79.6595 18.5367 79.5751 18.3407 79.5773 18.1086C79.5752 17.8829 79.6595 17.6891 79.8301 17.5273C80.0005 17.3654 80.2041 17.2846 80.4436 17.2846ZM15.6514 19.0548L3.59757 4.43594V19.0472H0.32843V0.463867H4.41458L19.6433 18.9158L19.6435 3.43986L19.6422 0.471621H36.1228V3.43968H22.9125V8.21453H33.5364V11.1828H22.9125V16.0867H36.123V19.0548H15.6514ZM46.6 11.1545L48.7424 13.7534L44.3524 19.0768H40.0623L46.6 11.1545ZM44.3524 0.479375L49.8835 7.18184L55.3973 0.499931L59.6754 0.49362L52.0254 9.77736L59.6878 19.0625H55.3973L40.0745 0.479375H44.3524ZM86.023 11.1128H87.4715V16.5584C87.4694 17.0588 87.3584 17.4867 87.1416 17.8468C86.9222 18.2066 86.6186 18.4814 86.229 18.6752C85.8413 18.8667 85.3873 18.9648 84.8711 18.9648C84.3993 18.9648 83.9765 18.8819 83.5999 18.7199C83.2232 18.558 82.9244 18.3153 82.7051 17.9958C82.4833 17.6764 82.3748 17.2781 82.3748 16.8012H83.8259C83.8281 17.0098 83.8767 17.1906 83.9697 17.3421C84.0611 17.4917 84.195 17.6122 84.3551 17.689C84.5212 17.7702 84.7116 17.8107 84.9264 17.8106C85.1592 17.8106 85.3584 17.7637 85.5201 17.6678C85.6818 17.574 85.8058 17.4335 85.8923 17.2462C85.9764 17.0608 86.0208 16.8309 86.023 16.5583V11.1128ZM93.4317 13.2424C93.3966 12.9124 93.2413 12.6545 92.9712 12.4715C92.6986 12.2861 92.3465 12.1947 91.9145 12.1947C91.6114 12.1947 91.3499 12.2394 91.1327 12.3267C90.9158 12.4162 90.7474 12.5353 90.6321 12.6866C90.5172 12.8377 90.4595 13.0103 90.4549 13.2041C90.4549 13.3659 90.4948 13.5065 90.5722 13.6236C90.6525 13.7463 90.7609 13.8492 90.889 13.924C91.028 14.0093 91.1768 14.0786 91.3321 14.1304C91.496 14.1857 91.6599 14.2326 91.8237 14.2711L92.579 14.4521C92.8826 14.5203 93.1772 14.6117 93.4585 14.7289C93.7396 14.844 93.9944 14.9909 94.218 15.1676C94.4419 15.3444 94.6191 15.5573 94.7497 15.8065C94.8803 16.0557 94.9469 16.3475 94.9469 16.6839C94.9469 17.1375 94.8273 17.5358 94.5858 17.8807C94.3444 18.2237 93.9966 18.492 93.5403 18.6859C93.0863 18.8775 92.5369 18.9754 91.8903 18.9754C91.2656 18.9754 90.7208 18.8817 90.2621 18.6943C89.8016 18.5091 89.4427 18.2363 89.1835 17.8786C88.9242 17.5208 88.7848 17.0843 88.7649 16.5711H90.2004C90.2202 16.8394 90.3089 17.063 90.4595 17.244C90.6122 17.4229 90.8116 17.5549 91.0553 17.6443C91.3011 17.7318 91.5757 17.7765 91.8792 17.7765C92.1959 17.7765 92.475 17.7296 92.7163 17.638C92.9556 17.5464 93.1438 17.4187 93.279 17.2525C93.4163 17.0884 93.4851 16.8947 93.4873 16.6733C93.4851 16.471 93.4228 16.3028 93.3032 16.1706C93.1814 16.0386 93.013 15.9279 92.7982 15.8384C92.5814 15.749 92.3288 15.668 92.0409 15.5979L91.1239 15.3721C90.4615 15.208 89.9367 14.959 89.5534 14.6245C89.1681 14.2902 88.9776 13.8473 88.9776 13.2914C88.9776 12.8358 89.106 12.4353 89.3653 12.0923C89.6222 11.7497 89.9744 11.4834 90.4196 11.2938C90.8668 11.1022 91.3721 11.0084 91.9344 11.0084C92.506 11.0084 93.0065 11.1022 93.4385 11.2938C93.8702 11.4834 94.2093 11.7473 94.4549 12.0838C94.7009 12.4205 94.8295 12.8058 94.8362 13.2424H93.4317Z" fill="#D6D6D6"/>
</g>
<defs>
<clipPath id="clip0_11_25">
<rect width="94.1922" height="18.8384" fill="white" transform="translate(0 0.463867)"/>
</clipPath>
</defs>
</svg>
