<svg width="76" height="92" viewBox="0 0 76 92" fill="none" xmlns="http://www.w3.org/2000/svg">
<path d="M38.0689 40.6088C41.8315 40.6088 44.8816 37.5586 44.8816 33.7961C44.8816 30.0335 41.8315 26.9834 38.0689 26.9834C34.3064 26.9834 31.2562 30.0335 31.2562 33.7961C31.2562 37.5586 34.3064 40.6088 38.0689 40.6088Z" fill="#D6D6D6"/>
<path d="M38.069 58.8493C43.4166 64.0504 48.6909 67.1271 52.9397 67.1271C54.3315 67.1271 55.6501 66.8341 56.7489 66.1748C60.5582 63.9771 61.95 58.483 60.6314 50.6448C60.4116 49.2529 60.1186 47.8611 59.7523 46.396C61.2174 45.9565 62.536 45.517 63.8546 45.0774C71.2533 42.2205 75.3556 38.2647 75.3556 33.9427C75.3556 29.5474 71.2533 25.5917 63.8546 22.808C62.536 22.2952 61.2174 21.8557 59.7523 21.4894C60.1186 20.0243 60.4116 18.6325 60.6314 17.2406C61.8767 9.25588 60.4849 3.68853 56.6757 1.49089C55.5768 0.831593 54.2582 0.538574 52.8664 0.538574C48.6909 0.538574 43.3433 3.61527 37.9957 8.81635C32.7214 3.61527 27.447 0.538574 23.1983 0.538574C21.8064 0.538574 20.4878 0.831593 19.389 1.49089C15.5798 3.68853 14.1879 9.18263 15.5065 17.0209C15.7263 18.4127 16.0193 19.8046 16.3856 21.2697C14.9205 21.7092 13.6019 22.1487 12.2833 22.5882C4.88458 25.4452 0.782318 29.4009 0.782318 33.723C0.782318 38.1182 4.88458 42.074 12.2833 44.8577C13.6019 45.3704 14.9205 45.81 16.3856 46.1763C16.0193 47.6413 15.7263 49.0332 15.5065 50.425C14.2612 58.2633 15.653 63.8306 19.389 65.955C20.4878 66.6143 21.8064 66.9073 23.1983 66.9073C27.447 67.0538 32.7214 63.9771 38.069 58.8493ZM33.9667 48.9599C35.2853 49.0332 36.6771 49.0332 38.069 49.0332C39.4608 49.0332 40.8526 49.0332 42.1712 48.9599C40.8526 50.718 39.4608 52.3296 38.069 53.868C36.6771 52.3296 35.2853 50.718 33.9667 48.9599ZM24.8831 41.4147C25.6157 42.66 26.275 43.8321 27.0808 45.0042C24.8099 44.7112 22.6855 44.3449 20.6343 43.9054C21.2936 41.9275 22.0262 39.8763 22.9052 37.8252C23.4913 38.9973 24.1506 40.2426 24.8831 41.4147ZM20.6343 23.7603C22.6855 23.3208 24.8099 22.9545 27.0808 22.6615C26.3482 23.8336 25.6157 25.0056 24.8831 26.251C24.1506 27.4963 23.4913 28.6684 22.9052 29.9137C21.9529 27.7893 21.2204 25.7382 20.6343 23.7603ZM24.6633 33.7962C25.6157 31.8183 26.6412 29.8405 27.8133 27.8626C28.9121 25.958 30.1575 24.0533 31.4028 22.1487C33.6004 22.0022 35.7981 21.9289 38.069 21.9289C40.4131 21.9289 42.6108 22.0022 44.7351 22.1487C46.0537 24.0533 47.2258 25.958 48.3246 27.8626C49.4967 29.8405 50.5223 31.8183 51.4746 33.7962C50.5223 35.7741 49.4967 37.752 48.3246 39.7298C47.2258 41.6345 45.9805 43.5391 44.7351 45.4437C42.5375 45.5902 40.3399 45.6635 38.069 45.6635C35.7248 45.6635 33.5272 45.5902 31.4028 45.4437C30.0842 43.5391 28.9121 41.6345 27.8133 39.7298C26.6412 37.752 25.6157 35.7741 24.6633 33.7962ZM53.3059 29.8405L51.3281 26.1777C50.5955 24.9324 49.9362 23.7603 49.1304 22.5882C51.4013 22.8813 53.5257 23.2475 55.5768 23.6871C54.9175 25.7382 54.185 27.7893 53.3059 29.8405ZM53.3059 37.752C54.185 39.8031 54.9175 41.8542 55.5768 43.8321C53.5257 44.2716 51.4013 44.6379 49.1304 44.9309C49.863 43.7588 50.5955 42.5868 51.3281 41.3414C51.9874 40.2426 52.6466 38.9973 53.3059 37.752ZM54.9908 63.1713C54.4048 63.5376 53.6722 63.6841 52.8664 63.6841C49.2769 63.6841 44.8084 60.7539 40.4131 56.3587C42.5375 54.0878 44.5886 51.5238 46.6398 48.6669C50.0827 48.3739 53.3792 47.8611 56.4559 47.1286C56.8222 48.4471 57.0419 49.7657 57.2617 51.0843C58.2873 57.311 57.4815 61.7795 54.9908 63.1713ZM58.8 24.5661C67.0046 26.9103 71.9126 30.4997 71.9126 33.7962C71.9126 36.6531 68.5429 39.5101 62.6093 41.781C61.4372 42.2205 60.1186 42.66 58.8 43.0263C57.8477 40.0229 56.6757 36.9462 55.2106 33.7962C56.6757 30.6463 57.921 27.5696 58.8 24.5661ZM52.9397 3.90829C53.7455 3.90829 54.4048 4.0548 55.064 4.42107C57.4815 5.81291 58.3605 10.2082 57.3349 16.5081C57.1152 17.7534 56.8222 19.072 56.5291 20.4639C53.4524 19.8046 50.156 19.2918 46.713 18.9255C44.7351 16.0686 42.6108 13.5047 40.4864 11.2338C44.8816 6.91173 49.3502 3.90829 52.9397 3.90829ZM42.1712 18.6325C40.8526 18.5592 39.4608 18.5592 38.069 18.5592C36.6771 18.5592 35.2853 18.5592 33.9667 18.6325C35.2853 16.8744 36.6771 15.2628 38.069 13.7244C39.4608 15.2628 40.8526 16.9476 42.1712 18.6325ZM21.1471 4.42107C21.7332 4.0548 22.4657 3.90829 23.2715 3.90829C26.861 3.90829 31.3295 6.83848 35.7248 11.2338C33.6004 13.5047 31.5493 16.0686 29.4982 18.9255C26.0552 19.2185 22.7587 19.7313 19.682 20.4639C19.3158 19.1453 19.096 17.8267 18.8762 16.5081C17.8507 10.2814 18.6565 5.88617 21.1471 4.42107ZM17.3379 43.0263C9.13335 40.6821 4.22529 37.0927 4.22529 33.7962C4.22529 30.9393 7.595 28.0823 13.5286 25.8114C14.7007 25.3719 16.0193 24.9324 17.3379 24.5661C18.2902 27.5696 19.4623 30.6463 20.9274 33.7962C19.4623 36.9462 18.2169 40.0961 17.3379 43.0263ZM18.8762 51.0843C19.096 49.839 19.389 48.5204 19.682 47.1286C22.7587 47.7879 26.0552 48.3006 29.4982 48.6669C31.476 51.5238 33.6004 54.0878 35.7248 56.3587C31.3295 60.6807 26.861 63.6841 23.2715 63.6841C22.4657 63.6841 21.8064 63.5376 21.1471 63.1713C18.6565 61.7795 17.8507 57.311 18.8762 51.0843ZM15.7995 81.2653C17.4111 79.2874 17.4844 77.0897 16.6053 74.8921C15.7263 72.6945 13.8949 71.6689 11.624 71.5956C8.91359 71.5224 6.12991 71.5956 3.41949 71.5956H2.9067V90.5686H5.10434V83.3896H8.54732C8.98685 83.3896 9.35312 83.5361 9.57288 83.9024L13.9682 90.7151C14.0414 90.8616 14.2612 91.0814 14.4077 91.0814H17.2646C15.5065 88.371 13.8217 85.807 12.0635 83.1699C13.6019 82.9501 14.9205 82.4373 15.7995 81.2653ZM5.10434 81.1187V73.8665H5.91015C7.59501 73.8665 9.35312 73.7933 11.038 73.9398C13.0159 74.013 14.4077 75.5514 14.4077 77.5293C14.4077 79.5071 12.7961 81.0455 10.8182 81.1187C9.0601 81.192 7.30199 81.1187 5.10434 81.1187ZM33.4539 82.0711C32.2818 76.9432 27.5935 75.6246 24.0041 77.2362C21.2204 78.4816 19.975 80.899 19.9018 83.9024C19.8285 86.1733 20.4878 88.2244 22.2459 89.7628C24.2238 91.5209 26.6412 91.7407 29.1319 91.3011C30.5237 91.0081 31.7691 90.3488 32.7214 89.3233C32.3551 88.8105 31.9888 88.2977 31.6225 87.8582C29.5714 89.6163 27.3005 90.2023 24.8099 89.0303C23.1983 88.2244 22.3925 86.2466 22.2459 84.7815H33.6004V83.8292C33.6737 83.1699 33.6004 82.5838 33.4539 82.0711ZM22.3925 83.2431C22.1727 81.0455 24.3703 78.7013 26.7877 78.7013C29.5714 78.6281 31.3295 80.3129 31.4028 83.2431H22.3925ZM44.8816 76.87C43.7828 76.6502 42.6107 76.577 41.5119 76.6502C39.7538 76.7967 38.2155 77.6025 36.9701 78.9211C37.3364 79.4339 37.6294 79.9467 38.069 80.5327C38.2155 80.3862 38.362 80.2397 38.5085 80.1664C39.6806 79.0676 41.0724 78.4816 42.7573 78.6281C44.0758 78.7013 45.3212 79.1409 45.6875 80.4594C45.9805 81.485 45.9072 82.5838 45.9805 83.6827C45.7607 83.6827 45.6875 83.6094 45.6142 83.5361C43.8561 82.0711 41.8782 81.778 39.7538 82.2908C37.7759 82.8036 36.5306 84.3419 36.3841 86.3198C36.2376 88.5907 37.2632 90.2756 39.241 91.0814C40.4864 91.5942 41.8782 91.5942 43.1968 91.3011C44.2224 91.0814 44.6619 90.4953 46.127 89.6895V90.6419H48.1781C48.1781 87.7117 48.2514 84.1222 48.1781 80.7525C48.1781 78.6281 46.9328 77.3095 44.8816 76.87ZM45.9072 86.1001C45.834 86.3198 45.9072 86.5396 45.9072 86.7594C45.9072 88.2977 45.5409 88.8105 44.0758 89.3965C43.0503 89.7628 41.9515 89.9093 40.8526 89.543C39.6073 89.1768 38.7283 88.0779 38.7283 86.8326C38.655 85.5873 39.4608 84.3419 40.7061 83.9757C42.391 83.3896 43.9293 83.7559 45.3212 84.7815C45.7607 85.1478 46.0537 85.514 45.9072 86.1001ZM57.3349 78.8478C59.2396 78.2618 60.9977 78.6281 62.3163 80.2397L62.536 80.3862C63.0488 79.9467 63.4883 79.5071 64.0744 78.9944C63.8546 78.7746 63.7814 78.6281 63.6349 78.4083C61.5105 76.1374 57.3349 75.8444 54.771 77.6758C51.1816 80.3129 51.2548 85.4408 53.0129 88.1512C54.6978 90.7151 57.1152 91.5942 59.9721 91.2279C61.657 91.0081 63.0488 90.2023 64.1476 88.8105C63.6348 88.371 63.1221 87.9314 62.6093 87.4186C62.4628 87.5652 62.3895 87.6384 62.3163 87.7849C60.3384 89.9826 57.0419 89.7628 55.2838 87.4186C54.2582 86.0268 54.0385 84.4152 54.3315 82.8036C54.478 80.9722 55.4303 79.5071 57.3349 78.8478ZM72.5719 88.8105C72.4254 88.8837 72.3522 88.957 72.3522 88.957C71.7661 89.3965 71.1801 89.4698 70.5208 89.25C69.8615 88.957 69.7882 88.371 69.715 87.7849V79.4339C69.715 79.2874 69.715 79.5804 69.7882 78.8478H72.5719V76.6502H69.6417V72.9875H67.4441V76.9432H65.5395C65.393 76.9432 65.1732 77.0897 65.1732 77.2362C65.0999 77.749 65.1732 78.1153 65.1732 78.8478H67.5173V88.2244C67.5173 89.3965 67.8104 90.4221 68.8359 91.0081C69.9348 91.6674 72.0591 91.5209 73.0115 90.7151C73.158 90.6419 73.2312 90.3488 73.2312 90.2756C73.0115 89.8361 72.7917 89.3233 72.5719 88.8105Z" fill="#D6D6D6"/>
</svg>
