<svg width="95" height="94" viewBox="0 0 95 94" fill="none" xmlns="http://www.w3.org/2000/svg">
<path d="M47.5001 23.4414C37.0687 23.4414 30.5832 28.6376 27.9656 39.0691C31.8725 33.8729 36.4436 31.9194 41.6398 33.2087C44.609 33.951 46.7578 36.0998 49.102 38.483C52.9308 42.39 57.2674 46.8829 67.0347 46.8829C77.4662 46.8829 83.9517 41.6867 86.5693 31.2552C82.6624 36.4514 78.0913 38.4049 72.8951 37.1156C69.9258 36.3733 67.8161 34.2245 65.4329 31.8413C61.6041 27.9344 57.2674 23.4414 47.5001 23.4414ZM27.9656 46.8829C17.5341 46.8829 11.0486 52.0791 8.43097 62.5106C12.3379 57.3144 16.909 55.3609 22.1052 56.6502C25.0744 57.3925 27.1842 59.5413 29.5674 61.9245C33.3962 65.8315 37.7328 70.3244 47.5001 70.3244C57.9316 70.3244 64.4171 65.1282 67.0347 54.6967C63.1278 59.8929 58.5567 61.8464 53.3605 60.5571C50.3913 59.8148 48.2815 57.666 45.8983 55.2828C42.0695 51.3759 37.7328 46.8829 27.9656 46.8829Z" fill="#D6D6D6"/>
</svg>
