<svg width="32" height="32" viewBox="0 0 32 32" fill="none" xmlns="http://www.w3.org/2000/svg">
<path d="M0.320312 5.46094H31.681V26.5392H0.320312V5.46094Z" fill="#D6D4D1"/>
<path d="M0.578125 5.71973H31.4243V26.2846H0.578125V5.71973Z" fill="#162B74"/>
<path d="M31.4243 5.72168H27.7173L16.0011 13.5324L4.28512 5.72168H0.578125V8.19229L12.2943 16.003L0.578125 23.8139V26.2847H4.28512L16.0011 18.4739L27.7173 26.2847H31.4243V23.8139L19.7084 16.003L31.4243 8.19229V5.72168Z" fill="white"/>
<path d="M0.578125 5.72168V6.95603L16.0011 17.2394V16.003L0.578125 5.72168Z" fill="#CE102A"/>
<path d="M31.4251 25.0503L16.002 14.7671V16.0031L31.4251 26.2849V25.0503Z" fill="#CE102A"/>
<path d="M0.578125 26.2847H2.43077L16.0011 17.2393V16.0029L0.578125 26.2847Z" fill="#CE102A"/>
<path d="M29.5725 5.72168L16.002 14.7685V16.0048L31.4234 5.72168H29.5725Z" fill="#CE102A"/>
<path d="M31.4243 14.2036H17.2871V5.72168H14.7154V14.2036H0.578125V17.8027H14.7154V26.2847H17.2871V17.8027H31.4243V14.2036Z" fill="#CE142B"/>
<path d="M13.6863 5.72168V13.1745H0.578125V14.2036H14.7154V5.72168H13.6863Z" fill="white"/>
<path d="M0.578125 18.8298H13.6863V26.2848H14.7154V17.8027H0.578125V18.8298Z" fill="white"/>
<path d="M31.4243 17.8027H17.2871V26.2848H18.3162V18.8298H31.4243V17.8027Z" fill="white"/>
<path d="M31.4243 13.1745H18.3162V5.72168H17.2871V14.2036H31.4243V13.1745Z" fill="white"/>
</svg>
