<svg width="40" height="40" viewBox="0 0 40 40" fill="none" xmlns="http://www.w3.org/2000/svg">
<path d="M15 5H8.33333C6.49238 5 5 6.49238 5 8.33333V15C5 16.8409 6.49238 18.3333 8.33333 18.3333H15C16.8409 18.3333 18.3333 16.8409 18.3333 15V8.33333C18.3333 6.49238 16.8409 5 15 5Z" stroke="#00A270" stroke-width="4.16489" stroke-linecap="round" stroke-linejoin="round"/>
<path d="M11.668 18.3334V25C11.668 25.8841 12.0192 26.7319 12.6443 27.3571C13.2694 27.9822 14.1172 28.3334 15.0013 28.3334H21.668" stroke="#00A270" stroke-width="4.16489" stroke-linecap="round" stroke-linejoin="round"/>
<path d="M31.668 21.6666H25.0013C23.1604 21.6666 21.668 23.159 21.668 25V31.6666C21.668 33.5076 23.1604 35 25.0013 35H31.668C33.5089 35 35.0013 33.5076 35.0013 31.6666V25C35.0013 23.159 33.5089 21.6666 31.668 21.6666Z" stroke="#00A270" stroke-width="4.16489" stroke-linecap="round" stroke-linejoin="round"/>
</svg>
