<svg width="40" height="40" viewBox="0 0 40 40" fill="none" xmlns="http://www.w3.org/2000/svg">
<path d="M33.334 3.33337H6.66732C4.82637 3.33337 3.33398 4.82576 3.33398 6.66671V13.3334C3.33398 15.1743 4.82637 16.6667 6.66732 16.6667H33.334C35.1749 16.6667 36.6673 15.1743 36.6673 13.3334V6.66671C36.6673 4.82576 35.1749 3.33337 33.334 3.33337Z" stroke="#00A270" stroke-width="4.16667" stroke-linecap="round" stroke-linejoin="round"/>
<path d="M33.334 23.3334H6.66732C4.82637 23.3334 3.33398 24.8258 3.33398 26.6667V33.3334C3.33398 35.1743 4.82637 36.6667 6.66732 36.6667H33.334C35.1749 36.6667 36.6673 35.1743 36.6673 33.3334V26.6667C36.6673 24.8258 35.1749 23.3334 33.334 23.3334Z" stroke="#00A270" stroke-width="4.16667" stroke-linecap="round" stroke-linejoin="round"/>
<path d="M10 10H10.0167" stroke="#00A270" stroke-width="4.16667" stroke-linecap="round" stroke-linejoin="round"/>
<path d="M10 30H10.0167" stroke="#00A270" stroke-width="4.16667" stroke-linecap="round" stroke-linejoin="round"/>
</svg>
