<svg width="40" height="40" viewBox="0 0 40 40" fill="none" xmlns="http://www.w3.org/2000/svg">
<path d="M34.9993 26.6666H28.3327C27.4122 26.6666 26.666 27.4128 26.666 28.3333V35C26.666 35.9204 27.4122 36.6666 28.3327 36.6666H34.9993C35.9198 36.6666 36.666 35.9204 36.666 35V28.3333C36.666 27.4128 35.9198 26.6666 34.9993 26.6666Z" stroke="#00A270" stroke-width="4.16489" stroke-linecap="round" stroke-linejoin="round"/>
<path d="M11.6673 26.6666H5.00065C4.08018 26.6666 3.33398 27.4128 3.33398 28.3333V35C3.33398 35.9204 4.08018 36.6666 5.00065 36.6666H11.6673C12.5878 36.6666 13.334 35.9204 13.334 35V28.3333C13.334 27.4128 12.5878 26.6666 11.6673 26.6666Z" stroke="#00A270" stroke-width="4.16489" stroke-linecap="round" stroke-linejoin="round"/>
<path d="M23.3333 3.33337H16.6667C15.7462 3.33337 15 4.07957 15 5.00004V11.6667C15 12.5872 15.7462 13.3334 16.6667 13.3334H23.3333C24.2538 13.3334 25 12.5872 25 11.6667V5.00004C25 4.07957 24.2538 3.33337 23.3333 3.33337Z" stroke="#00A270" stroke-width="4.16489" stroke-linecap="round" stroke-linejoin="round"/>
<path d="M8.33398 26.6667V21.6667C8.33398 21.2246 8.50958 20.8007 8.82214 20.4882C9.1347 20.1756 9.55862 20 10.0007 20H30.0007C30.4427 20 30.8666 20.1756 31.1792 20.4882C31.4917 20.8007 31.6673 21.2246 31.6673 21.6667V26.6667" stroke="#00A270" stroke-width="4.16489" stroke-linecap="round" stroke-linejoin="round"/>
<path d="M20 20V13.3334" stroke="#00A270" stroke-width="4.16489" stroke-linecap="round" stroke-linejoin="round"/>
</svg>
