<svg width="40" height="40" viewBox="0 0 40 40" fill="none" xmlns="http://www.w3.org/2000/svg">
<path d="M16.6673 20.8334L13.334 25L16.6673 29.1667" stroke="#00A270" stroke-width="4.16489" stroke-linecap="round" stroke-linejoin="round"/>
<path d="M23.334 20.8334L26.6673 25L23.334 29.1667" stroke="#00A270" stroke-width="4.16489" stroke-linecap="round" stroke-linejoin="round"/>
<path d="M23.334 3.33337V10C23.334 10.8841 23.6852 11.7319 24.3103 12.3571C24.9354 12.9822 25.7833 13.3334 26.6673 13.3334H33.334" stroke="#00A270" stroke-width="4.16489" stroke-linecap="round" stroke-linejoin="round"/>
<path d="M24.9993 3.33337H9.99935C9.11529 3.33337 8.26745 3.68456 7.64233 4.30968C7.0172 4.93481 6.66602 5.78265 6.66602 6.66671V33.3334C6.66602 34.2174 7.0172 35.0653 7.64233 35.6904C8.26745 36.3155 9.11529 36.6667 9.99935 36.6667H29.9993C30.8834 36.6667 31.7312 36.3155 32.3564 35.6904C32.9815 35.0653 33.3327 34.2174 33.3327 33.3334V11.6667L24.9993 3.33337Z" stroke="#00A270" stroke-width="4.16489" stroke-linecap="round" stroke-linejoin="round"/>
</svg>
