<svg width="40" height="40" viewBox="0 0 40 40" fill="none" xmlns="http://www.w3.org/2000/svg">
<path d="M20 8.33334C20.002 7.66672 19.8706 7.00644 19.6137 6.39134C19.3567 5.77623 18.9794 5.21871 18.5038 4.75158C18.0283 4.28444 17.4641 3.91712 16.8445 3.67122C16.2249 3.42532 15.5623 3.3058 14.8959 3.31969C14.2294 3.33358 13.5724 3.4806 12.9636 3.75211C12.3548 4.02362 11.8064 4.41413 11.3507 4.90068C10.895 5.38722 10.5412 5.95998 10.3101 6.58526C10.079 7.21054 9.9753 7.87571 10.005 8.54167C9.02538 8.79356 8.11588 9.26509 7.34543 9.92052C6.57498 10.576 5.96377 11.3981 5.55812 12.3247C5.15246 13.2514 4.96298 14.2582 5.00402 15.2689C5.04507 16.2796 5.31557 17.2677 5.79504 18.1583C4.95201 18.8432 4.28909 19.7237 3.86394 20.7232C3.4388 21.7227 3.26431 22.811 3.35565 23.8933C3.44699 24.9756 3.8014 26.0193 4.38805 26.9334C4.9747 27.8475 5.77582 28.6044 6.72171 29.1383C6.6049 30.0421 6.67461 30.9601 6.92652 31.8359C7.17843 32.7116 7.6072 33.5264 8.18635 34.2299C8.7655 34.9335 9.48273 35.5108 10.2937 35.9263C11.1048 36.3417 11.9923 36.5866 12.9017 36.6456C13.811 36.7046 14.7228 36.5765 15.5807 36.2694C16.4386 35.9622 17.2244 35.4824 17.8896 34.8596C18.5549 34.2368 19.0853 33.4843 19.4483 32.6484C19.8113 31.8126 19.9991 30.9112 20 30V8.33334Z" stroke="#00A270" stroke-width="4.16667" stroke-linecap="round" stroke-linejoin="round"/>
<path d="M15 21.6667C16.3993 21.1744 17.6211 20.2783 18.5111 19.0917C19.4011 17.905 19.9192 16.4811 20 15" stroke="#00A270" stroke-width="4.16667" stroke-linecap="round" stroke-linejoin="round"/>
<path d="M10.0059 8.54163C10.0388 9.34785 10.2664 10.1341 10.6692 10.8333" stroke="#00A270" stroke-width="4.16667" stroke-linecap="round" stroke-linejoin="round"/>
<path d="M5.79492 18.16C6.09982 17.9117 6.42609 17.6908 6.76992 17.5" stroke="#00A270" stroke-width="4.16667" stroke-linecap="round" stroke-linejoin="round"/>
<path d="M9.99904 30C8.85042 30.0006 7.72115 29.7043 6.7207 29.14" stroke="#00A270" stroke-width="4.16667" stroke-linecap="round" stroke-linejoin="round"/>
<path d="M20 21.6666H26.6667" stroke="#00A270" stroke-width="4.16667" stroke-linecap="round" stroke-linejoin="round"/>
<path d="M20 30H30C30.8841 30 31.7319 30.3512 32.357 30.9763C32.9821 31.6014 33.3333 32.4493 33.3333 33.3333V35" stroke="#00A270" stroke-width="4.16667" stroke-linecap="round" stroke-linejoin="round"/>
<path d="M20 13.3334H33.3333" stroke="#00A270" stroke-width="4.16667" stroke-linecap="round" stroke-linejoin="round"/>
<path d="M26.666 13.3333V8.33333C26.666 7.44928 27.0172 6.60143 27.6423 5.97631C28.2674 5.35119 29.1153 5 29.9993 5" stroke="#00A270" stroke-width="4.16667" stroke-linecap="round" stroke-linejoin="round"/>
<path d="M26.6673 22.5C27.1276 22.5 27.5007 22.1269 27.5007 21.6667C27.5007 21.2065 27.1276 20.8334 26.6673 20.8334C26.2071 20.8334 25.834 21.2065 25.834 21.6667C25.834 22.1269 26.2071 22.5 26.6673 22.5Z" stroke="#00A270" stroke-width="4.16667" stroke-linecap="round" stroke-linejoin="round"/>
<path d="M29.9993 5.83329C30.4596 5.83329 30.8327 5.4602 30.8327 4.99996C30.8327 4.53972 30.4596 4.16663 29.9993 4.16663C29.5391 4.16663 29.166 4.53972 29.166 4.99996C29.166 5.4602 29.5391 5.83329 29.9993 5.83329Z" stroke="#00A270" stroke-width="4.16667" stroke-linecap="round" stroke-linejoin="round"/>
<path d="M33.3333 35.8333C33.7936 35.8333 34.1667 35.4602 34.1667 35C34.1667 34.5397 33.7936 34.1666 33.3333 34.1666C32.8731 34.1666 32.5 34.5397 32.5 35C32.5 35.4602 32.8731 35.8333 33.3333 35.8333Z" stroke="#00A270" stroke-width="4.16667" stroke-linecap="round" stroke-linejoin="round"/>
<path d="M33.3333 14.1667C33.7936 14.1667 34.1667 13.7936 34.1667 13.3333C34.1667 12.8731 33.7936 12.5 33.3333 12.5C32.8731 12.5 32.5 12.8731 32.5 13.3333C32.5 13.7936 32.8731 14.1667 33.3333 14.1667Z" stroke="#00A270" stroke-width="4.16667" stroke-linecap="round" stroke-linejoin="round"/>
</svg>
