<svg width="40" height="40" viewBox="0 0 40 40" fill="none" xmlns="http://www.w3.org/2000/svg">
<path d="M13.8866 31.4469C12.5647 30.4063 11.1553 29.4094 10.1897 28.0063C8.16156 25.5313 6.59906 22.6626 5.53343 19.6501C4.88656 17.6907 4.66781 15.5907 3.83343 13.7063C2.96468 12.3376 3.98343 10.8438 5.48031 10.4094C6.14593 10.2813 7.32093 9.65006 5.90531 10.1032C4.63656 11.0344 4.51468 9.25631 5.81468 9.14381C6.70218 9.02506 7.03031 8.30006 6.72718 7.64381C5.77406 7.02193 9.03968 6.33756 7.39593 5.40943C5.68343 3.56256 9.78968 3.20631 8.77718 5.30631C8.53656 6.91881 11.6459 5.00943 10.9241 6.87193C11.6584 7.76568 13.6741 7.07506 13.6209 8.33131C14.6897 8.40631 15.0584 9.30318 16.0584 9.37193C17.0991 9.84068 18.9834 10.2126 19.3366 11.3844C18.3053 12.2001 15.9147 9.69693 15.8022 11.9594C16.1147 15.3001 16.0334 18.7407 17.2553 21.9219C17.8334 23.8469 19.2334 25.3626 20.4991 26.8626C21.7116 28.3313 23.3491 29.3657 25.0241 30.2376C26.4897 30.9282 28.0709 31.3876 29.6709 31.6751C30.3178 31.1782 31.4647 29.3376 32.4741 30.1126C32.5241 30.9876 30.4678 31.9376 32.3772 31.8438C33.4991 31.5063 34.2772 32.7094 35.2022 31.6219C36.0522 32.6313 38.7397 30.9782 38.1334 33.0376C37.3147 33.5657 36.1209 33.2469 35.2991 33.9751C33.9459 33.3001 32.8709 34.5782 31.3741 34.4188C29.7116 34.7157 28.0209 34.8376 26.3334 34.8376C23.5678 34.6188 20.7428 34.5282 18.1147 33.5657C16.6334 33.1344 15.1866 32.2907 13.8866 31.4469ZM16.2209 32.4594C17.6678 33.0844 19.0834 33.7438 20.6678 33.9438C23.1834 34.2938 25.7834 34.8313 28.3084 34.3407C27.1647 33.8251 25.9834 34.5407 24.8459 33.9719C23.4803 34.2657 22.0147 33.8969 20.6272 33.7157C19.0491 33.0126 17.3459 32.5282 15.8678 31.6157C14.0209 30.9407 16.8241 32.4813 17.3209 32.6063C18.4741 33.2626 16.0522 32.2688 15.7084 31.9969C14.7428 31.4532 14.6178 31.5688 15.6116 32.1188C15.8116 32.2344 16.0116 32.3594 16.2209 32.4594ZM13.4678 30.5126C14.8709 31.0313 13.4616 29.5251 12.8209 29.6126C12.5366 29.1188 11.7334 28.8063 12.2991 28.5407C11.2803 28.8938 11.2303 27.1969 10.7522 27.4376C9.67406 27.0969 10.3334 25.8907 9.04906 25.1501C8.93343 24.3688 7.77406 23.6938 7.40531 22.5157C7.24281 21.9126 6.09593 20.1844 6.79906 21.7938C7.39906 23.3438 8.45218 24.6719 9.33031 25.9969C10.0116 27.2594 10.8178 28.5782 12.0553 29.3657C12.4741 29.7719 12.8772 30.3876 13.4678 30.5126ZM9.42718 26.0782C9.47718 25.8657 9.68343 26.5344 9.42718 26.0782V26.0782ZM15.1459 31.1344C14.6991 30.9594 15.4584 30.9969 15.1459 31.1344V31.1344ZM15.9084 31.4126C15.5616 31.6282 15.8303 31.0282 15.9084 31.4126V31.4126ZM16.8616 31.8094C16.1616 31.5376 17.3147 31.3782 16.8616 31.8094V31.8094ZM18.4928 32.7188C17.6116 32.5657 18.7709 32.3126 18.4928 32.7188V32.7188ZM15.3584 30.5344C14.4491 30.5282 16.0616 30.0782 15.3584 30.5344V30.5344ZM16.0741 30.8907C15.8178 30.9969 16.0522 30.6501 16.0741 30.8907V30.8907ZM19.6459 33.1188C20.2209 33.4813 22.9991 33.9126 21.2584 33.2688C20.9678 33.3313 18.0303 32.4376 19.6459 33.1188ZM13.9741 28.7032C13.0834 28.4376 13.9178 28.4626 13.9741 28.7032V28.7032ZM15.6366 29.6719C14.7397 29.4407 16.0709 29.3719 15.6366 29.6719V29.6719ZM17.0366 30.5313C16.0272 30.2969 17.6553 30.2969 17.0366 30.5313V30.5313ZM13.2959 27.9657C13.9709 28.4813 16.0147 28.0313 14.3272 27.6563C13.5616 27.2469 11.8303 26.9688 13.0084 27.9032L13.2959 27.9657ZM17.9834 30.8282C16.8053 30.5532 18.2647 30.3501 17.9834 30.8282V30.8282ZM16.5584 29.6938C18.2053 30.1594 15.1741 28.6501 16.1522 29.5219L16.3709 29.6219L16.5584 29.6938ZM19.4147 31.3438C18.0053 31.1313 20.9741 31.3594 19.4147 31.3438V31.3438ZM12.6959 27.0626C12.3116 27.0876 12.6366 26.7719 12.6959 27.0626V27.0626ZM22.0522 32.8251C21.5459 33.2157 22.0959 32.3001 22.0522 32.8251V32.8251ZM15.3584 28.6938C14.8709 28.6813 15.2647 28.4188 15.3584 28.6938V28.6938ZM12.8459 26.8813C11.6178 26.4876 13.7397 26.8282 12.8459 26.8813V26.8813ZM9.86468 24.9563C8.88968 24.1844 9.75218 24.5251 9.86468 24.9563V24.9563ZM17.6866 29.9188C17.5241 29.7313 17.6084 29.9594 17.6866 29.9188V29.9188ZM22.5553 32.9063C22.2897 33.0157 22.5397 32.6219 22.5553 32.9063V32.9063ZM17.2553 29.4751C16.4928 29.3626 17.3428 29.1063 17.2553 29.4751V29.4751ZM13.6303 27.1751C12.5616 26.7251 14.2959 27.1032 13.6303 27.1751V27.1751ZM19.7647 30.9876C18.7522 30.7876 20.8022 30.5751 19.7647 30.9876V30.9876ZM16.5741 28.8219C17.7709 28.9751 15.1491 28.0063 16.3116 28.7344L16.5741 28.8219ZM20.7334 31.3813C21.8522 30.7126 21.4834 32.9469 22.6303 31.5688C23.7616 30.7438 21.6522 32.5907 23.0459 31.7157C24.0553 31.0407 25.5428 32.0344 26.4834 32.3594C27.1584 32.3251 27.8178 32.9438 28.5116 32.5688C29.8459 32.2094 25.8991 32.0344 26.9334 31.3969C25.7116 31.7532 24.8084 30.9719 24.2084 30.1907C22.8366 29.8751 21.2522 29.1751 20.5678 27.9594C20.2897 27.5032 20.9709 28.0251 20.3272 27.2782C19.5022 26.5438 19.0897 25.7094 18.5366 24.8157C17.8741 24.4626 17.7959 23.4219 17.7303 24.7813C17.7366 23.9251 16.9303 23.3469 16.7334 23.5876C16.7303 22.7626 17.5959 23.1751 16.9897 22.5657C16.8584 21.7094 16.4303 20.8188 16.3022 19.8532C16.1022 19.3876 16.2741 18.3907 15.6178 19.4438C15.3803 20.5594 15.5397 18.0751 15.9116 18.8938C16.3991 18.0594 15.7366 18.1563 15.7084 18.2719C16.0272 17.5657 15.9084 16.5657 15.6241 16.9469C15.7928 16.2001 15.8928 14.1969 15.3709 14.5532C15.6866 13.7719 15.9709 10.9782 14.5991 12.0438C14.0428 12.0532 13.0834 12.2438 12.6272 12.4719C14.0522 13.2563 12.4834 12.7563 11.9022 12.6313C11.8272 13.3594 11.2522 13.0438 10.5334 13.0501C11.6803 13.1907 9.97406 14.2219 9.31781 13.8219C8.46156 14.2313 10.0553 15.2501 9.33343 15.5657C9.42093 16.0407 8.02406 15.3938 8.13343 16.4907C7.30531 16.1407 8.02093 17.7907 8.43343 17.2344C9.84281 17.6157 9.42718 18.4876 9.46156 19.3126C9.23031 19.7938 8.32718 18.1813 9.26156 18.2563C8.52406 17.0594 8.44593 17.8251 7.83656 18.3782C7.69593 18.4188 9.39593 19.1688 8.32718 19.5407C9.26781 19.6876 9.29593 20.5094 9.48656 21.0282C10.0522 21.6157 9.93656 20.3782 10.6116 21.0844C10.1834 20.4532 8.34593 19.3094 9.82406 19.6751C9.81468 19.0407 9.55531 18.5282 10.0116 18.5407C10.4616 17.7282 9.53968 20.5469 10.5522 19.5126C10.8334 19.3907 10.9022 18.7001 11.4053 19.5782C12.1366 20.2969 11.6709 20.8188 10.6366 20.1594C10.8209 20.7876 12.0178 21.0094 11.7928 21.9907C12.0303 22.8532 12.3647 22.5344 12.6553 22.4844C12.8834 23.3219 13.0116 22.7063 13.0241 22.3063C14.0678 22.5313 13.8241 23.1469 14.1491 23.5782C14.8678 23.9032 13.1209 21.3782 14.3553 22.8188C15.6553 23.9907 14.8428 24.4813 13.6772 24.2938C14.4147 24.2344 14.6522 25.2907 15.5741 25.2532C16.4147 25.6532 16.9866 27.1907 15.5366 26.5501C15.0334 26.0969 13.2522 25.5376 14.7084 26.4001C16.0522 27.0219 17.1178 27.3938 18.4147 28.1751C19.3397 28.8376 19.7428 29.5938 20.0928 29.7438C19.3147 30.1157 17.7459 29.4469 18.9116 29.2407C18.1834 29.1094 17.3678 28.7407 18.0647 29.6469C18.6553 30.1407 20.1616 30.0907 20.4334 30.1438C20.2053 30.6469 19.8116 30.6876 20.4428 30.7251C19.7397 31.1063 20.6678 31.1657 20.7334 31.3813ZM19.2959 27.3188C18.8678 26.8719 18.7584 26.0344 19.2209 26.7626C19.4553 26.8563 19.9803 28.1313 19.2959 27.3188ZM23.9803 30.2938C23.9866 30.4969 24.2459 30.2751 23.9803 30.2938V30.2938ZM18.6209 26.2219C18.6022 25.5438 18.7741 26.7438 18.6209 26.2219V26.2219ZM18.1553 25.5938C17.6147 24.5563 18.8334 25.8907 18.1553 25.5938V25.5938ZM12.5116 21.7001C12.6678 22.2407 12.8272 21.6157 12.5116 21.7001V21.7001ZM17.0022 24.1344C17.1959 23.4063 17.2303 24.7469 17.0022 24.1344V24.1344ZM13.8303 21.9282C13.6084 21.5251 14.2991 22.3063 13.8303 21.9282V21.9282ZM16.5522 22.8001C16.0428 21.6594 16.9147 22.1751 16.6647 22.9876L16.5522 22.8001ZM11.8584 19.6719C11.6303 19.2969 11.2553 18.1969 11.3741 17.8626C11.4834 18.4094 12.5366 20.2157 11.8897 18.6094C11.1772 17.2657 12.7428 19.0469 12.9053 19.3813C12.9803 19.7157 12.4647 19.2907 12.8147 20.0719C12.1772 19.1813 12.4397 20.5657 11.8584 19.6719ZM10.4084 18.6719C10.4678 17.8001 10.7397 19.2688 10.4084 18.6719V18.6719ZM11.0584 18.8969C11.3709 18.2376 11.5866 19.8126 11.0584 18.8969V18.8969ZM9.48968 17.6813C8.94906 17.1438 8.55843 16.6501 9.51468 17.3469C9.88343 17.3626 8.69593 16.2219 9.60218 16.9844C10.5584 17.1594 10.0741 18.5501 9.48968 17.6813ZM10.3147 17.6594C10.4803 17.9657 10.6272 17.3501 10.3147 17.6594V17.6594ZM10.8209 17.8219C10.3459 16.9313 11.3991 18.1969 10.8209 17.8219V17.8219ZM9.81468 16.8594C8.24593 15.4626 11.7866 17.5907 10.0709 17.1188L9.81468 16.8594ZM14.3116 19.4719C13.6303 19.0657 14.1303 16.6032 14.3616 18.2876C15.0209 18.0751 14.3241 19.1563 14.8178 19.1469C14.7428 19.8282 14.5209 20.0751 14.3116 19.4719ZM15.9772 20.4563C16.0428 19.7126 16.1178 20.9626 15.9772 20.4563V20.4563ZM15.6866 20.1688C15.6959 20.5438 15.7616 19.8532 15.6866 20.1688V20.1688ZM10.1209 16.4001C9.11156 15.0094 13.0522 17.8094 10.7678 16.7532C10.5272 16.6876 10.2397 16.6657 10.1209 16.4001ZM13.3272 18.0969C13.2303 16.9251 13.5397 18.2907 13.3272 18.0969V18.0969ZM15.7584 19.6594C15.7741 20.1001 15.9459 18.9907 15.7584 19.6594V19.6594ZM10.2772 15.8688C10.8772 15.7407 12.7616 16.9219 11.0303 16.2063C10.8366 15.9907 10.4272 16.0876 10.2772 15.8688ZM15.4241 18.4344C15.4866 17.2344 15.7834 17.7188 15.4272 18.6063L15.4241 18.4344ZM10.7209 15.4501C10.9647 15.0907 10.0709 13.8313 10.8491 14.9969C11.1866 15.2626 11.8209 15.4438 11.2584 15.5563C12.1459 16.3376 11.0459 15.7688 10.7209 15.4501ZM15.1709 18.0594C15.3178 18.8594 15.3397 16.6938 15.1709 18.0594V18.0594ZM10.2116 14.1907C10.3116 14.4376 10.3991 14.1094 10.2116 14.1907V14.1907ZM11.3709 14.8813C11.6709 14.2532 11.9241 15.5782 11.3709 14.8813V14.8813ZM14.6428 16.7001C14.6428 16.4594 14.7053 17.0501 14.6428 16.7001V16.7001ZM14.4553 16.2813C14.0022 15.1594 14.8772 16.8751 14.4553 16.2813V16.2813ZM14.1772 15.5469C14.0991 15.0844 14.4366 16.1282 14.1772 15.5469V15.5469ZM14.6303 14.8094C14.3178 14.2594 15.0241 12.3876 15.1022 13.5501C14.7741 14.4532 15.0084 14.9594 15.2366 13.7469C15.6616 12.7907 15.1459 15.6282 14.6303 14.8094ZM15.0959 12.0251C15.1272 12.2282 15.2334 11.8594 15.0959 12.0251V12.0251ZM14.3178 27.3751C14.1334 27.2126 14.3397 27.4782 14.3178 27.3751V27.3751ZM15.9209 28.1876C16.8147 28.4188 16.8084 28.0501 16.0022 27.9407C15.5678 27.5376 14.1991 27.1094 15.4241 27.8907C15.5084 28.0938 15.7647 28.0876 15.9209 28.1876ZM12.7522 26.0813C13.2428 26.4501 14.6053 27.1188 13.4522 26.2219C13.8397 25.7719 12.7084 25.5313 13.0834 25.2282C12.1272 24.6438 12.3303 24.6969 12.9991 24.7157C11.8522 24.2032 13.1647 24.2407 13.1022 23.9782C12.6584 23.8907 10.9053 23.1969 11.9366 24.0344C10.8866 23.5001 11.6866 24.2344 11.3678 24.1563C10.2928 23.8626 12.3241 24.9751 11.1991 24.6969C11.8147 25.1844 12.8553 25.9469 11.4584 25.2126C11.2803 25.4782 12.4616 25.8813 12.7522 26.0813ZM14.4303 27.0469C13.4303 26.2407 16.4709 27.7032 14.4303 27.0469V27.0469ZM23.0241 32.2501C22.7428 32.5969 23.0491 31.8438 23.0241 32.2501V32.2501ZM23.9053 32.6219C24.3772 32.1657 23.9241 33.3501 24.6866 32.5094C24.6959 31.9094 24.6647 31.5532 23.8116 32.2844C23.5772 32.4157 23.4709 32.9688 23.9053 32.6219ZM9.88968 23.8188C8.87406 23.2532 9.74281 23.2501 9.88968 23.8188V23.8188ZM10.8303 24.4376C9.58031 23.9126 10.4803 23.8563 10.8303 24.4376V24.4376ZM16.1959 27.6719C16.7209 28.1376 18.6022 28.0126 16.8303 27.7282C16.5709 27.3407 15.1678 27.4344 16.1959 27.6719ZM23.5709 32.2251C22.7897 32.5282 24.3741 31.5501 23.5709 32.2251V32.2251ZM25.2459 33.3782C24.8991 33.4719 25.2522 33.1626 25.2459 33.3782V33.3782ZM25.2491 33.0751C24.3834 33.1313 26.1428 32.1282 25.2491 33.0751V33.0751ZM7.56781 21.8782C6.80843 20.7938 7.09593 20.3063 6.36156 19.4188C6.22093 18.7407 5.10218 17.2032 5.78343 18.8313C6.40531 19.7844 6.58968 21.2594 7.56781 21.8782ZM24.9678 32.7751C24.2959 32.3126 26.6116 31.7126 24.9678 32.7751V32.7751ZM26.2209 33.2657C25.7022 33.1188 27.0459 32.5594 26.2209 33.2657V33.2657ZM9.60843 22.6188C9.00218 22.5751 9.84593 22.2688 9.60843 22.6188V22.6188ZM25.9616 32.9282C26.7584 32.4157 25.7772 32.4938 25.8178 32.9751L25.9616 32.9282ZM15.1553 26.1188C14.7334 26.1469 15.1272 25.7719 15.1553 26.1188V26.1188ZM15.8241 26.5032C15.4959 26.5688 15.6084 26.0719 15.8241 26.5032V26.5032ZM27.2397 33.2751C28.2616 32.5376 26.6209 33.1344 27.0272 33.4157L27.2397 33.2751ZM26.8459 33.0876C25.9709 33.3969 27.6803 32.3907 26.8459 33.0876V33.0876ZM28.8428 34.4157C28.1647 34.2969 29.4022 34.0438 28.8428 34.4157V34.4157ZM10.1209 22.3657C10.8678 22.5344 13.1084 24.2063 11.7866 22.4813C11.1084 22.2813 11.5147 20.6251 10.8241 20.9188C11.2866 21.6938 11.2053 22.0219 10.2303 21.5344C9.00843 20.9376 9.54281 21.8282 9.78343 22.0751C9.45843 22.1532 10.2178 22.3594 10.1209 22.3657ZM6.71468 19.6751C6.84906 19.1219 5.48031 16.6282 6.06781 18.4251C6.28031 18.8032 6.25843 19.5157 6.71468 19.6751ZM12.9678 23.5313C12.5834 23.2094 12.9491 23.4844 12.9678 23.5313V23.5313ZM13.9147 23.7532C12.8678 23.5126 13.9147 23.1657 13.9147 23.7532V23.7532ZM22.1334 28.9313C21.5147 28.9251 21.9772 28.5313 22.1334 28.9313V28.9313ZM22.5272 29.2219C22.3022 29.2657 22.4709 28.9969 22.5272 29.2219V29.2219ZM25.7866 31.2719C25.3959 31.2438 26.0991 31.0407 25.7866 31.2719V31.2719ZM8.41468 20.1094C7.45531 19.8626 9.31156 19.7626 8.41468 20.1094V20.1094ZM21.4116 28.2969C20.8397 28.4407 21.3991 27.7157 21.4116 28.2969V28.2969ZM8.06156 19.2844C7.52718 19.1563 8.63656 19.0907 8.06156 19.2844V19.2844ZM9.73031 20.0938C9.55531 20.1657 9.72093 19.9032 9.73031 20.0938V20.0938ZM30.1116 32.5907C30.8522 32.4407 32.5397 32.9688 32.8116 32.3938C31.9116 32.3719 29.7022 31.7594 29.5991 32.5376L29.7959 32.5688L30.1116 32.5907ZM10.2616 20.2282C9.80531 20.2063 10.2772 19.6407 10.2616 20.2282V20.2282ZM5.87093 17.1813C5.11156 17.0126 5.67093 16.0626 5.87093 17.1813V17.1813ZM6.91781 17.4438C5.95843 17.1219 6.93031 17.0844 6.91781 17.4438V17.4438ZM7.51468 17.7376C7.34281 17.6001 7.38031 17.9157 7.51468 17.7376V17.7376ZM11.2834 20.1532C10.8616 20.0344 11.4616 19.9907 11.2834 20.1532V20.1532ZM7.11781 17.0751C5.90531 16.9501 7.01468 16.2282 7.11781 17.0751V17.0751ZM4.97093 15.6813C4.76156 15.8282 4.93968 15.2907 4.97093 15.6813V15.6813ZM5.28968 15.4407C5.01468 15.5001 5.23656 14.9782 5.28968 15.4407V15.4407ZM7.05531 16.4938C7.80218 16.2001 5.69593 15.8876 6.90218 16.4376L7.05531 16.4938ZM30.6772 31.0844C30.0709 30.9501 31.1553 30.6469 30.6772 31.0844V31.0844ZM33.5303 32.5657C33.0491 32.6376 33.7209 32.0001 33.5303 32.5657V32.5657ZM7.23343 15.5688C6.64281 15.6782 7.31468 15.0219 7.23343 15.5688V15.5688ZM4.72406 13.8876C4.58968 13.1157 4.60843 11.7563 5.89906 12.2157C4.17718 12.5594 7.09281 14.3563 6.72406 12.9376C7.44906 12.9719 8.13968 12.5094 7.76156 13.2126C9.18968 13.0563 10.1772 11.8188 11.5553 11.9907C12.6303 11.8469 13.8022 11.7407 14.9584 11.3094C15.9084 11.2407 16.8241 10.2157 16.3053 9.60943C15.0084 9.50006 13.6491 9.66256 12.2178 9.94693C10.6303 10.2782 9.18656 10.9032 7.58343 11.1751C6.02093 11.3844 7.89593 11.7532 7.44906 11.8344C6.63343 12.1157 8.42093 12.3094 7.34281 12.6063C6.67718 12.4782 5.98343 12.2501 6.26781 11.5501C4.77093 11.7438 3.45531 12.3657 4.63968 13.8876H4.72406ZM8.33031 12.0501C8.68031 10.7563 10.2084 13.1126 8.90531 12.2219C8.74906 12.1032 8.49281 12.0094 8.33031 12.0501ZM8.39906 11.4219C8.66781 11.6344 8.90531 11.0469 8.39906 11.4219V11.4219ZM9.04281 11.4344C9.08968 10.8407 10.5147 11.7501 9.27718 11.6469L9.04281 11.4344ZM9.92093 11.0782C10.0147 11.4126 10.2428 10.7032 9.92093 11.0782V11.0782ZM10.1459 10.9282C10.6803 10.2844 13.1741 10.5188 11.3491 10.8657C10.8616 10.4969 10.4866 11.0844 10.1459 10.9282ZM13.4022 10.4282C13.3209 8.67193 15.0209 11.0501 13.4022 10.4282V10.4282ZM14.3272 10.4219C14.6647 9.53756 15.6397 10.0657 14.4834 10.2438C14.5084 10.3376 14.4491 10.7001 14.3272 10.4219ZM6.87093 15.1157C5.79906 14.5782 7.88031 14.4969 6.87093 15.1157V15.1157ZM7.61781 15.3219C6.84906 15.1688 7.97093 14.9469 7.61781 15.3219V15.3219ZM5.41781 13.7626C4.73656 13.5938 5.99593 13.3188 5.41781 13.7626V13.7626ZM35.2147 32.4032C34.7741 32.6344 35.2303 31.8876 35.2147 32.4032V32.4032ZM32.1866 30.3376C31.7991 30.3876 32.2741 29.7438 32.1866 30.3376V30.3376ZM36.0491 32.6032C36.8553 32.6063 38.4928 32.3532 36.7366 32.3532C36.4616 32.3938 35.1334 32.3876 36.0491 32.6032ZM8.27406 14.9594C8.92718 14.9157 9.29593 14.2407 8.14593 14.2782C6.36781 14.0938 9.71468 14.8876 7.91781 14.6594C7.67718 14.8188 8.25843 15.0032 8.27406 14.9594ZM8.84906 15.2501C8.64593 15.4719 8.78031 14.8313 8.84906 15.2501V15.2501ZM9.53031 13.4313C9.13656 13.3376 9.81156 13.0813 9.53031 13.4313V13.4313ZM7.35843 9.80631C8.52406 9.40943 10.1147 8.96568 10.6647 10.0001C10.1053 9.32818 10.4397 8.66256 10.9678 9.65006C11.7147 10.6469 12.0897 9.19693 11.6022 8.86256C12.1553 9.55006 12.7866 9.87506 11.9741 8.90631C12.8584 7.84381 10.2053 9.04693 9.60218 9.03443C9.31468 9.16256 6.60843 9.72193 7.35843 9.80631ZM8.04281 8.50006C8.70843 8.00006 10.3397 8.80006 9.29281 8.00318C9.18968 7.90943 6.99593 8.60631 8.04281 8.50006ZM10.4647 8.60006C11.2428 8.61881 10.1303 7.55631 11.0553 8.03756C10.9022 7.54068 9.97718 7.44693 9.52406 7.25006C9.26781 7.70318 10.0428 8.60631 10.4647 8.60006ZM8.46781 6.40006C7.99593 6.58756 8.73656 6.03756 8.46781 6.40006V6.40006ZM9.45531 6.63756C10.7084 6.47193 9.13656 6.10006 9.20218 6.62506L9.45531 6.63756ZM7.60843 5.19381C6.72718 4.04068 9.26781 5.38756 8.37093 4.18131C7.61781 3.58131 6.89281 4.85631 7.60843 5.19381ZM18.9241 11.2876C19.3272 10.5719 17.2553 10.3219 18.6522 11.0344C18.7834 11.0782 18.7522 11.3376 18.9241 11.2876Z" fill="#010101"/>
</svg>
