<svg width="40" height="40" viewBox="0 0 40 40" fill="none" xmlns="http://www.w3.org/2000/svg">
<mask id="mask0_1660_6485" style="mask-type:luminance" maskUnits="userSpaceOnUse" x="5" y="0" width="30" height="40">
<path d="M5.875 0.3125H34.1562V39.6875H5.875V0.3125Z" fill="white"/>
</mask>
<g mask="url(#mask0_1660_6485)">
<path fill-rule="evenodd" clip-rule="evenodd" d="M6.59436 21.4688C6.65686 22.5625 7.75061 22.0625 8.25061 21.7188C8.71936 21.375 8.87561 21.6563 8.90686 21C8.93811 20.5625 8.96936 20.1563 8.96936 19.7188C8.25061 19.6563 7.46936 19.8125 6.87561 20.25C6.59436 20.4688 6.00061 21.1875 6.59436 21.4688Z" fill="#F6D2A2"/>
</g>
<mask id="mask1_1660_6485" style="mask-type:luminance" maskUnits="userSpaceOnUse" x="5" y="0" width="30" height="40">
<path d="M5.875 0.3125H34.1562V39.6875H5.875V0.3125Z" fill="white"/>
</mask>
<g mask="url(#mask1_1660_6485)">
<path d="M7.18725 22.25C6.9685 22.25 6.56225 22.1563 6.49975 21.5313C6.31225 21.4063 6.24975 21.25 6.24975 21.1562C6.2185 20.7812 6.62475 20.3437 6.8435 20.1875C7.3435 19.8125 7.99975 19.625 8.68725 19.625H9.0935V19.7187C9.12475 20.0625 9.0935 20.4063 9.06225 20.7188C9.06225 20.8125 9.06225 20.9062 9.031 21C8.99975 21.4687 8.906 21.5312 8.68725 21.625C8.5935 21.6562 8.49975 21.6875 8.3435 21.8125C8.18725 21.9063 7.656 22.25 7.18725 22.25ZM8.68725 19.8125C8.031 19.8125 7.43725 20 6.9685 20.3437C6.74975 20.5 6.43725 20.875 6.4685 21.125C6.4685 21.2187 6.531 21.3125 6.656 21.375L6.7185 21.4063V21.4687C6.74975 21.9687 6.99975 22.0313 7.18725 22.0313C7.49975 22.0313 7.93725 21.8125 8.2185 21.625C8.406 21.5 8.531 21.4687 8.62475 21.4375C8.781 21.375 8.81225 21.375 8.8435 21C8.8435 20.9062 8.8435 20.8125 8.87475 20.7188C8.906 20.4375 8.906 20.125 8.906 19.8438C8.81225 19.8125 8.74975 19.8125 8.68725 19.8125Z" fill="black"/>
</g>
<mask id="mask2_1660_6485" style="mask-type:luminance" maskUnits="userSpaceOnUse" x="5" y="0" width="30" height="40">
<path d="M5.875 0.3125H34.1562V39.6875H5.875V0.3125Z" fill="white"/>
</mask>
<g mask="url(#mask2_1660_6485)">
<path fill-rule="evenodd" clip-rule="evenodd" d="M6.59375 21.4687C6.75 21.4062 6.9375 21.375 7.03125 21.2188L6.59375 21.4687Z" fill="#C6B198"/>
</g>
<mask id="mask3_1660_6485" style="mask-type:luminance" maskUnits="userSpaceOnUse" x="5" y="0" width="30" height="40">
<path d="M5.875 0.3125H34.1562V39.6875H5.875V0.3125Z" fill="white"/>
</mask>
<g mask="url(#mask3_1660_6485)">
<path d="M6.59429 21.5625C6.56304 21.5625 6.50054 21.5313 6.50054 21.5C6.46929 21.4375 6.50054 21.375 6.56304 21.375C6.59429 21.375 6.62554 21.3438 6.62554 21.3438C6.75054 21.2813 6.87554 21.25 6.93804 21.1563C6.96929 21.125 7.03179 21.0938 7.09429 21.125C7.12554 21.1563 7.15679 21.2188 7.12554 21.2813C7.00054 21.4375 6.84429 21.5 6.71929 21.5313L6.65679 21.5625H6.59429Z" fill="black"/>
</g>
<mask id="mask4_1660_6485" style="mask-type:luminance" maskUnits="userSpaceOnUse" x="5" y="0" width="30" height="40">
<path d="M5.875 0.3125H34.1562V39.6875H5.875V0.3125Z" fill="white"/>
</mask>
<g mask="url(#mask4_1660_6485)">
<path fill-rule="evenodd" clip-rule="evenodd" d="M9.15546 8.24999C4.90546 7.06249 8.06171 1.65624 11.468 3.87499L9.15546 8.24999Z" fill="#6AD7E5"/>
</g>
<mask id="mask5_1660_6485" style="mask-type:luminance" maskUnits="userSpaceOnUse" x="5" y="0" width="30" height="40">
<path d="M5.875 0.3125H34.1562V39.6875H5.875V0.3125Z" fill="white"/>
</mask>
<g mask="url(#mask5_1660_6485)">
<path d="M9.21788 8.375L9.12413 8.34375C6.93663 7.71875 6.96788 6.15625 7.03038 5.6875C7.18663 4.5 8.31163 3.25 9.81163 3.25C10.4054 3.25 10.9679 3.4375 11.5304 3.8125L11.6241 3.875L9.21788 8.375ZM9.81163 3.46875C8.40538 3.46875 7.37413 4.625 7.21788 5.71875C7.06163 6.84375 7.74913 7.71875 9.09288 8.125L11.3116 3.90625C10.8429 3.625 10.3429 3.46875 9.81163 3.46875Z" fill="black"/>
</g>
<mask id="mask6_1660_6485" style="mask-type:luminance" maskUnits="userSpaceOnUse" x="5" y="0" width="30" height="40">
<path d="M5.875 0.3125H34.1562V39.6875H5.875V0.3125Z" fill="white"/>
</mask>
<g mask="url(#mask6_1660_6485)">
<path fill-rule="evenodd" clip-rule="evenodd" d="M28 3.4688C31.3438 1.12505 34.4062 6.43755 30.5 7.7813L28 3.4688Z" fill="#6AD7E5"/>
</g>
<mask id="mask7_1660_6485" style="mask-type:luminance" maskUnits="userSpaceOnUse" x="5" y="0" width="30" height="40">
<path d="M5.875 0.3125H34.1562V39.6875H5.875V0.3125Z" fill="white"/>
</mask>
<g mask="url(#mask7_1660_6485)">
<path d="M30.4688 7.90625L27.875 3.4375L27.9688 3.375C28.5625 2.96875 29.1562 2.75 29.75 2.75C31.1875 2.75 32.2188 3.9375 32.4375 5.09375C32.5313 5.5625 32.625 7.15625 30.5625 7.84375L30.4688 7.90625ZM28.1563 3.53125L30.5625 7.6875C31.7813 7.25 32.4063 6.3125 32.2188 5.1875C32.0313 4.125 31.0625 3.03125 29.75 3.03125C29.2188 3 28.6875 3.15625 28.1563 3.53125Z" fill="black"/>
</g>
<mask id="mask8_1660_6485" style="mask-type:luminance" maskUnits="userSpaceOnUse" x="5" y="0" width="30" height="40">
<path d="M5.875 0.3125H34.1562V39.6875H5.875V0.3125Z" fill="white"/>
</mask>
<g mask="url(#mask8_1660_6485)">
<path fill-rule="evenodd" clip-rule="evenodd" d="M28.75 35.0938C29.5938 35.625 31.1562 37.2187 29.875 38C28.6562 39.125 27.9688 36.75 26.875 36.4375C27.3438 35.8125 27.9375 35.2188 28.75 35.0938Z" fill="#F6D2A2"/>
</g>
<mask id="mask9_1660_6485" style="mask-type:luminance" maskUnits="userSpaceOnUse" x="5" y="0" width="30" height="40">
<path d="M5.875 0.3125H34.1562V39.6875H5.875V0.3125Z" fill="white"/>
</mask>
<g mask="url(#mask9_1660_6485)">
<path d="M29.2187 38.4063C28.7187 38.4063 28.2813 37.9063 27.9063 37.4375C27.5625 37.0625 27.2188 36.6563 26.8438 36.5313L26.6875 36.5L26.7812 36.375C27.1562 35.8438 27.7812 35.1562 28.7188 35H28.75L28.7812 35.0312C29.3125 35.375 30.4688 36.3437 30.4375 37.25C30.4375 37.5937 30.25 37.875 29.9062 38.0938C29.6875 38.3125 29.4687 38.4063 29.2187 38.4063ZM27.0312 36.375C27.4062 36.5313 27.7187 36.9375 28.0312 37.2813C28.4062 37.75 28.7812 38.1562 29.1875 38.1562C29.375 38.1562 29.5625 38.0625 29.75 37.875H29.7813C30.0625 37.6875 30.2187 37.4688 30.2187 37.1875C30.2187 36.4688 29.3125 35.5625 28.6875 35.1562C28.125 35.3125 27.5625 35.6875 27.0312 36.375ZM29.875 38.0938C29.8437 38.0938 29.8125 38.0625 29.7813 38.0312C29.7188 37.9062 29.6563 37.75 29.625 37.625C29.5313 37.375 29.4375 37.125 29.25 36.9375C29.2187 36.9062 29.2187 36.8437 29.25 36.7812C29.2812 36.75 29.3437 36.75 29.4062 36.7812C29.625 37 29.75 37.2812 29.8437 37.5625L30 37.9375C30.0312 38 30 38.0625 29.9688 38.0938H29.875Z" fill="black"/>
</g>
<mask id="mask10_1660_6485" style="mask-type:luminance" maskUnits="userSpaceOnUse" x="5" y="0" width="30" height="40">
<path d="M5.875 0.3125H34.1562V39.6875H5.875V0.3125Z" fill="white"/>
</mask>
<g mask="url(#mask10_1660_6485)">
<path fill-rule="evenodd" clip-rule="evenodd" d="M13.4992 36.9062C12.4992 37.0625 11.9367 37.9687 11.0929 38.4375C10.3117 38.9062 9.99918 38.2812 9.93668 38.1562C9.81168 38.0937 9.81168 38.2187 9.62418 38.0312C8.90543 36.875 10.3742 36.0312 11.1554 35.4687C12.2492 35.2187 12.9367 36.1562 13.4992 36.9062Z" fill="#F6D2A2"/>
</g>
<mask id="mask11_1660_6485" style="mask-type:luminance" maskUnits="userSpaceOnUse" x="5" y="0" width="30" height="40">
<path d="M5.875 0.3125H34.1562V39.6875H5.875V0.3125Z" fill="white"/>
</mask>
<g mask="url(#mask11_1660_6485)">
<path d="M10.5617 38.6875C10.1554 38.6875 9.93666 38.3438 9.87416 38.2188H9.84291C9.74916 38.2188 9.68666 38.1875 9.56166 38.0625V38.0312C8.87416 36.9375 10.0617 36.0937 10.8429 35.5312L11.1242 35.3437H11.1867C11.3117 35.3125 11.4054 35.3125 11.5304 35.3125C12.4679 35.3125 13.0617 36.125 13.5617 36.7812L13.7179 37L13.5304 37.0312C12.9367 37.125 12.4992 37.5 12.0617 37.875C11.7804 38.125 11.4992 38.3438 11.1867 38.5313C10.9367 38.625 10.7492 38.6875 10.5617 38.6875ZM9.87416 38.0312C9.90541 38.0312 9.93666 38.0313 9.99916 38.0625H10.0304L10.0617 38.0938C10.1242 38.1875 10.2804 38.4687 10.5929 38.4687C10.7492 38.4687 10.9054 38.4062 11.0617 38.3125C11.3742 38.1562 11.6554 37.9062 11.9054 37.6875C12.3117 37.3437 12.7492 36.9688 13.3117 36.8125C12.8429 36.1875 12.2804 35.5 11.4992 35.5C11.4054 35.5 11.3117 35.5 11.2179 35.5312L10.9679 35.7188C10.1554 36.2813 9.15541 37 9.74916 37.9375C9.78041 38 9.81166 38.0312 9.87416 38.0312ZM9.93666 38.25C9.87416 38.25 9.81166 38.1875 9.84291 38.125C9.87416 37.8125 10.0304 37.5938 10.1867 37.3438C10.2804 37.2188 10.3429 37.0938 10.4054 36.9688C10.4367 36.9063 10.4992 36.9062 10.5304 36.9062C10.5929 36.9375 10.5929 37 10.5929 37.0312C10.5304 37.1875 10.4367 37.3125 10.3429 37.4375C10.1867 37.6563 10.0617 37.8438 10.0304 38.0938C10.0304 38.2188 9.99916 38.25 9.93666 38.25Z" fill="black"/>
</g>
<mask id="mask12_1660_6485" style="mask-type:luminance" maskUnits="userSpaceOnUse" x="5" y="0" width="30" height="40">
<path d="M5.875 0.3125H34.1562V39.6875H5.875V0.3125Z" fill="white"/>
</mask>
<g mask="url(#mask12_1660_6485)">
<path fill-rule="evenodd" clip-rule="evenodd" d="M9.3433 6.78118C8.7808 6.49993 8.37455 6.09368 8.7183 5.43743C9.0308 4.84368 9.62455 4.90618 10.1871 5.18743L9.3433 6.78118ZM29.6246 6.21868C30.1871 5.93743 30.5933 5.53118 30.2496 4.87493C29.9371 4.28118 29.3433 4.34368 28.7808 4.62493L29.6246 6.21868Z" fill="black"/>
</g>
<mask id="mask13_1660_6485" style="mask-type:luminance" maskUnits="userSpaceOnUse" x="5" y="0" width="30" height="40">
<path d="M5.875 0.3125H34.1562V39.6875H5.875V0.3125Z" fill="white"/>
</mask>
<g mask="url(#mask13_1660_6485)">
<path fill-rule="evenodd" clip-rule="evenodd" d="M33.4687 21.3125C33.4062 22.4063 32.3125 21.9063 31.8125 21.5625C31.3438 21.2188 31.1875 21.5 31.1562 20.8438C31.125 20.4063 31.0938 20 31.0938 19.5625C31.8125 19.5 32.5937 19.6563 33.1875 20.0938C33.5 20.3438 34.0625 21.0313 33.4687 21.3125Z" fill="#F6D2A2"/>
</g>
<mask id="mask14_1660_6485" style="mask-type:luminance" maskUnits="userSpaceOnUse" x="5" y="0" width="30" height="40">
<path d="M5.875 0.3125H34.1562V39.6875H5.875V0.3125Z" fill="white"/>
</mask>
<g mask="url(#mask14_1660_6485)">
<path d="M32.9055 22.0937C32.4368 22.0937 31.9055 21.75 31.7493 21.6563C31.593 21.5625 31.4993 21.5 31.4055 21.4687C31.1555 21.375 31.093 21.3125 31.0618 20.8437C31.0618 20.75 31.0618 20.6563 31.0305 20.5625C30.9993 20.25 30.968 19.9062 30.9993 19.5625V19.4688H31.4055C32.093 19.4688 32.7493 19.6562 33.2493 20.0312C33.468 20.1875 33.8743 20.625 33.843 21C33.843 21.125 33.7805 21.2813 33.593 21.375C33.5305 22 33.1243 22.0937 32.9055 22.0937ZM31.1868 19.6875C31.1868 19.9688 31.1868 20.2813 31.218 20.5625C31.218 20.6563 31.218 20.75 31.2493 20.8437C31.2805 21.2187 31.3118 21.2187 31.468 21.2812C31.5618 21.3125 31.6868 21.375 31.8743 21.4687C32.1555 21.6562 32.593 21.875 32.9055 21.875C33.093 21.875 33.343 21.8125 33.3743 21.3125V21.25L33.4368 21.2188C33.5618 21.1563 33.6243 21.0937 33.6243 20.9687C33.6555 20.7187 33.343 20.3437 33.1243 20.1875C32.6555 19.8437 32.0305 19.6563 31.4055 19.6563C31.343 19.6875 31.2805 19.6875 31.1868 19.6875Z" fill="black"/>
</g>
<mask id="mask15_1660_6485" style="mask-type:luminance" maskUnits="userSpaceOnUse" x="5" y="0" width="30" height="40">
<path d="M5.875 0.3125H34.1562V39.6875H5.875V0.3125Z" fill="white"/>
</mask>
<g mask="url(#mask15_1660_6485)">
<path fill-rule="evenodd" clip-rule="evenodd" d="M33.4688 21.3125C33.3125 21.25 33.125 21.2188 33.0312 21.0625L33.4688 21.3125Z" fill="#C6B198"/>
</g>
<mask id="mask16_1660_6485" style="mask-type:luminance" maskUnits="userSpaceOnUse" x="5" y="0" width="30" height="40">
<path d="M5.875 0.3125H34.1562V39.6875H5.875V0.3125Z" fill="white"/>
</mask>
<g mask="url(#mask16_1660_6485)">
<path d="M33.4678 21.4375H33.4365L33.374 21.4063C33.2178 21.3438 33.0615 21.3125 32.9678 21.1563C32.9365 21.125 32.9365 21.0313 32.999 21C33.0303 20.9688 33.124 20.9688 33.1553 21.0313C33.2178 21.125 33.3428 21.1563 33.4678 21.2188C33.499 21.2188 33.5303 21.25 33.5303 21.25C33.5928 21.2813 33.624 21.3438 33.5928 21.375C33.5615 21.4063 33.499 21.4375 33.4678 21.4375Z" fill="black"/>
</g>
<mask id="mask17_1660_6485" style="mask-type:luminance" maskUnits="userSpaceOnUse" x="5" y="0" width="30" height="40">
<path d="M5.875 0.3125H34.1562V39.6875H5.875V0.3125Z" fill="white"/>
</mask>
<g mask="url(#mask17_1660_6485)">
<path fill-rule="evenodd" clip-rule="evenodd" d="M19.6241 1.25C23.8741 1.25 27.8428 1.84375 29.9366 5.9375C31.8116 10.5 31.124 15.4375 31.4365 20.2812C31.6865 24.4375 32.2178 29.2188 30.3115 33.0625C28.2803 37.0938 23.2178 38.125 19.0616 37.9688C15.7803 37.8438 11.8428 36.7812 9.9678 33.7812C7.81155 30.2812 8.81155 25.0625 8.9678 21.1562C9.1553 16.5312 7.7178 11.875 9.24905 7.375C10.7803 2.65625 15.0303 1.59375 19.6241 1.25Z" fill="#6AD7E5"/>
</g>
<mask id="mask18_1660_6485" style="mask-type:luminance" maskUnits="userSpaceOnUse" x="5" y="0" width="30" height="40">
<path d="M5.875 0.3125H34.1562V39.6875H5.875V0.3125Z" fill="white"/>
</mask>
<g mask="url(#mask18_1660_6485)">
<path d="M19.7811 38.0937H18.9999C17.7186 38.0624 15.7811 37.8437 13.8749 37.0624C12.0311 36.3124 10.6874 35.2499 9.81239 33.8437C8.06239 30.9999 8.37489 27.0937 8.65614 23.6249C8.71864 22.7499 8.78114 21.9374 8.81239 21.1562C8.87489 19.5312 8.74989 17.8437 8.59364 16.2499C8.34364 13.3124 8.09364 10.2812 9.06239 7.34366C9.81239 5.15616 11.1561 3.59366 13.1874 2.59366C14.7811 1.81241 16.7499 1.37491 19.5624 1.15616C23.7499 1.12491 27.9061 1.71866 29.9999 5.87491C31.3749 9.21866 31.3749 12.8124 31.4061 16.2812C31.4061 17.5937 31.4061 18.9374 31.4999 20.2499C31.5311 20.6562 31.5624 21.0624 31.5624 21.4687C31.8124 25.2812 32.0936 29.5937 30.3436 33.0937C29.4686 34.8749 27.9374 36.1874 25.8436 37.0312C24.1561 37.7187 22.0311 38.0937 19.7811 38.0937ZM19.6249 1.34366C15.2186 1.68741 10.9061 2.65616 9.31239 7.40616C8.34364 10.3124 8.59364 13.3124 8.84364 16.2187C8.96864 17.8437 9.12489 19.4999 9.06239 21.1562C9.03114 21.9374 8.96864 22.7499 8.90614 23.6249C8.62489 27.0624 8.31239 30.9374 10.0311 33.7187C10.7499 34.8749 13.0624 37.6249 19.0311 37.8437H19.8124C26.7186 37.8437 29.2811 34.7812 30.2186 32.9687C31.9374 29.5312 31.6561 25.2187 31.4374 21.4374C31.4061 21.0312 31.3749 20.6249 31.3749 20.2187C31.3124 18.9062 31.2811 17.5624 31.2811 16.2499C31.2499 12.8124 31.2499 9.21866 29.9061 5.90616C28.9686 4.06241 27.5624 2.81241 25.6249 2.09366C23.6249 1.43741 21.3749 1.34366 19.6249 1.34366Z" fill="black"/>
</g>
<mask id="mask19_1660_6485" style="mask-type:luminance" maskUnits="userSpaceOnUse" x="5" y="0" width="30" height="40">
<path d="M5.875 0.3125H34.1562V39.6875H5.875V0.3125Z" fill="white"/>
</mask>
<g mask="url(#mask19_1660_6485)">
<path fill-rule="evenodd" clip-rule="evenodd" d="M20.3745 6.93759C21.1245 11.3751 28.3745 10.1876 27.3432 5.71884C26.4057 1.71884 20.1245 2.84384 20.3745 6.93759Z" fill="white"/>
</g>
<mask id="mask20_1660_6485" style="mask-type:luminance" maskUnits="userSpaceOnUse" x="5" y="0" width="30" height="40">
<path d="M5.875 0.3125H34.1562V39.6875H5.875V0.3125Z" fill="white"/>
</mask>
<g mask="url(#mask20_1660_6485)">
<path d="M23.8125 9.84375C22.4063 9.84375 20.625 9.09375 20.25 6.96875C20.1875 5.96875 20.5 5.0625 21.1563 4.375C21.875 3.59375 22.9688 3.15625 24.0938 3.15625C25.4063 3.15625 26.9688 3.84375 27.4063 5.75C27.6563 6.8125 27.4688 7.75 26.875 8.5C26.2188 9.3125 25.0625 9.84375 23.8125 9.84375ZM20.4688 6.9375C20.625 7.8125 21.0313 8.5 21.6875 9C22.25 9.4375 23.0313 9.65625 23.8125 9.65625C24.9688 9.65625 26.0938 9.15625 26.7188 8.375C27.2813 7.6875 27.4375 6.78125 27.2188 5.78125C26.8125 4 25.3438 3.375 24.0938 3.375C23.0313 3.375 22 3.8125 21.3125 4.53125C20.7188 5.15625 20.4063 6 20.4688 6.9375Z" fill="black"/>
</g>
<mask id="mask21_1660_6485" style="mask-type:luminance" maskUnits="userSpaceOnUse" x="5" y="0" width="30" height="40">
<path d="M5.875 0.3125H34.1562V39.6875H5.875V0.3125Z" fill="white"/>
</mask>
<g mask="url(#mask21_1660_6485)">
<path fill-rule="evenodd" clip-rule="evenodd" d="M11.7178 7.65629C12.7178 11.5 18.8741 10.5313 18.6553 6.65629C18.3741 2.03129 10.7491 2.90629 11.7178 7.65629Z" fill="white"/>
</g>
<mask id="mask22_1660_6485" style="mask-type:luminance" maskUnits="userSpaceOnUse" x="5" y="0" width="30" height="40">
<path d="M5.875 0.3125H34.1562V39.6875H5.875V0.3125Z" fill="white"/>
</mask>
<g mask="url(#mask22_1660_6485)">
<path d="M15.0005 10.2188C13.6567 10.2188 12.0942 9.5625 11.5942 7.6875C11.3755 6.59375 11.5942 5.59375 12.2192 4.84375C12.9067 4 14.0317 3.5 15.2505 3.5C16.8755 3.5 18.5942 4.46875 18.7192 6.65625C18.7817 7.5625 18.5005 8.375 17.8755 9.03125C17.2192 9.75 16.1255 10.2188 15.0005 10.2188ZM15.2505 3.71875C14.0942 3.71875 13.0317 4.1875 12.3755 4.96875C11.7817 5.6875 11.5942 6.59375 11.813 7.625C12.2505 9.375 13.7505 10 15.0005 10C16.063 10 17.0942 9.59375 17.7505 8.875C18.313 8.28125 18.5942 7.5 18.5317 6.65625C18.4692 5.3125 17.563 3.71875 15.2505 3.71875Z" fill="black"/>
</g>
<mask id="mask23_1660_6485" style="mask-type:luminance" maskUnits="userSpaceOnUse" x="5" y="0" width="30" height="40">
<path d="M5.875 0.3125H34.1562V39.6875H5.875V0.3125Z" fill="white"/>
</mask>
<g mask="url(#mask23_1660_6485)">
<path fill-rule="evenodd" clip-rule="evenodd" d="M21.2491 12.25C21.2491 12.8125 21.3741 13.4687 21.2804 14.0937C21.1241 14.375 20.8429 14.4062 20.5929 14.5C20.2491 14.4375 19.9679 14.2187 19.8116 13.9062C19.7179 13.2187 19.8429 12.5312 19.8741 11.8438L21.2491 12.25Z" fill="white"/>
</g>
<mask id="mask24_1660_6485" style="mask-type:luminance" maskUnits="userSpaceOnUse" x="5" y="0" width="30" height="40">
<path d="M5.875 0.3125H34.1562V39.6875H5.875V0.3125Z" fill="white"/>
</mask>
<g mask="url(#mask24_1660_6485)">
<path d="M20.5947 14.625C20.1884 14.5625 19.8759 14.3125 19.7197 13.9688C19.6572 13.4688 19.6884 13 19.7197 12.5312C19.7509 12.3125 19.7509 12.0938 19.7509 11.875V11.75L21.3447 12.25V12.3125C21.3447 12.5 21.3759 12.6875 21.3759 12.9063C21.4072 13.3125 21.4384 13.75 21.3759 14.1563V14.1875C21.2509 14.4375 21.0322 14.5 20.8134 14.5938C20.7509 14.5625 20.6884 14.5938 20.5947 14.625ZM19.9072 13.875C20.0322 14.1563 20.2822 14.3438 20.5634 14.4062C20.6259 14.375 20.6884 14.375 20.7197 14.3438C20.9072 14.2813 21.0634 14.2188 21.1572 14.0625C21.2197 13.6875 21.1884 13.2813 21.1572 12.875C21.1572 12.6875 21.1259 12.5 21.1259 12.3438L19.9384 11.9688C19.9384 12.1563 19.9072 12.3438 19.9072 12.5C19.8759 13 19.8447 13.4375 19.9072 13.875Z" fill="black"/>
</g>
<mask id="mask25_1660_6485" style="mask-type:luminance" maskUnits="userSpaceOnUse" x="5" y="0" width="30" height="40">
<path d="M5.875 0.3125H34.1562V39.6875H5.875V0.3125Z" fill="white"/>
</mask>
<g mask="url(#mask25_1660_6485)">
<path fill-rule="evenodd" clip-rule="evenodd" d="M14.4687 7.03125C14.4687 7.65625 14 8.15625 13.4375 8.15625C12.875 8.15625 12.4062 7.65625 12.4062 7.03125C12.4062 6.40625 12.875 5.90625 13.4375 5.90625C14 5.90625 14.4687 6.40625 14.4687 7.03125Z" fill="black"/>
</g>
<mask id="mask26_1660_6485" style="mask-type:luminance" maskUnits="userSpaceOnUse" x="5" y="0" width="30" height="40">
<path d="M5.875 0.3125H34.1562V39.6875H5.875V0.3125Z" fill="white"/>
</mask>
<g mask="url(#mask26_1660_6485)">
<path fill-rule="evenodd" clip-rule="evenodd" d="M14.125 7.28125C14.125 7.4375 14 7.5625 13.875 7.5625C13.75 7.5625 13.625 7.4375 13.625 7.28125C13.625 7.125 13.75 7 13.875 7C14.0313 7 14.125 7.125 14.125 7.28125Z" fill="white"/>
</g>
<mask id="mask27_1660_6485" style="mask-type:luminance" maskUnits="userSpaceOnUse" x="5" y="0" width="30" height="40">
<path d="M5.875 0.3125H34.1562V39.6875H5.875V0.3125Z" fill="white"/>
</mask>
<g mask="url(#mask27_1660_6485)">
<path fill-rule="evenodd" clip-rule="evenodd" d="M23.1875 6.75C23.1875 7.375 22.7188 7.875 22.1563 7.875C21.5938 7.875 21.125 7.375 21.125 6.75C21.125 6.125 21.5938 5.625 22.1563 5.625C22.7188 5.625 23.1875 6.125 23.1875 6.75Z" fill="black"/>
</g>
<mask id="mask28_1660_6485" style="mask-type:luminance" maskUnits="userSpaceOnUse" x="5" y="0" width="30" height="40">
<path d="M5.875 0.3125H34.1562V39.6875H5.875V0.3125Z" fill="white"/>
</mask>
<g mask="url(#mask28_1660_6485)">
<path fill-rule="evenodd" clip-rule="evenodd" d="M22.8748 7C22.8748 7.15625 22.781 7.28125 22.6248 7.28125C22.4998 7.28125 22.3748 7.15625 22.3748 7C22.3748 6.84375 22.4685 6.71875 22.6248 6.71875C22.7498 6.71875 22.8748 6.84375 22.8748 7ZM18.2498 12.1875C17.781 13.2812 18.4998 15.5 19.7498 13.875C19.656 13.1875 19.781 12.5 19.8123 11.8125L18.2498 12.1875Z" fill="white"/>
</g>
<mask id="mask29_1660_6485" style="mask-type:luminance" maskUnits="userSpaceOnUse" x="5" y="0" width="30" height="40">
<path d="M5.875 0.3125H34.1562V39.6875H5.875V0.3125Z" fill="white"/>
</mask>
<g mask="url(#mask29_1660_6485)">
<path d="M18.906 14.5625C18.6872 14.5625 18.4685 14.4375 18.3122 14.1875C17.9685 13.6875 17.906 12.75 18.156 12.1563L18.1872 12.0938L19.906 11.6562V11.7813L19.8747 12.4688C19.8435 12.9375 19.8122 13.375 19.8747 13.8438V13.875L19.8435 13.9063C19.531 14.3438 19.2185 14.5625 18.906 14.5625ZM18.3435 12.2812C18.156 12.8125 18.2185 13.6563 18.4997 14.0625C18.6247 14.25 18.7497 14.3438 18.906 14.3438C19.1247 14.3438 19.3747 14.1562 19.6247 13.8438C19.5622 13.375 19.5935 12.9063 19.656 12.4688L19.6872 11.9375L18.3435 12.2812Z" fill="black"/>
</g>
<mask id="mask30_1660_6485" style="mask-type:luminance" maskUnits="userSpaceOnUse" x="5" y="0" width="30" height="40">
<path d="M5.875 0.3125H34.1562V39.6875H5.875V0.3125Z" fill="white"/>
</mask>
<g mask="url(#mask30_1660_6485)">
<path fill-rule="evenodd" clip-rule="evenodd" d="M18.4053 10.0625C17.5616 10.125 16.8741 11.1563 17.3116 11.9375C17.9053 13 19.1866 11.8438 19.9991 11.9375C20.9366 11.9688 21.6866 12.9375 22.4366 12.125C23.2803 11.2188 22.0616 10.3438 21.1553 9.9375L18.4053 10.0625Z" fill="#F6D2A2"/>
</g>
<mask id="mask31_1660_6485" style="mask-type:luminance" maskUnits="userSpaceOnUse" x="5" y="0" width="30" height="40">
<path d="M5.875 0.3125H34.1562V39.6875H5.875V0.3125Z" fill="white"/>
</mask>
<g mask="url(#mask31_1660_6485)">
<path d="M21.7821 12.5625C21.5008 12.5625 21.2196 12.4375 20.9383 12.3125C20.6571 12.1875 20.3446 12.0625 20.0008 12.0625H19.9071C19.6571 12.0625 19.3758 12.1562 19.0633 12.2812C18.7196 12.4062 18.3758 12.5 18.0633 12.5C17.6883 12.5 17.4071 12.3438 17.2196 12C17.0008 11.625 17.0321 11.1875 17.2508 10.7812C17.5008 10.3125 17.9383 10.0312 18.4071 9.96875L21.1883 9.84375H21.2196C21.9071 10.125 22.6883 10.6562 22.8446 11.2812C22.9071 11.5937 22.8133 11.9062 22.5633 12.1875C22.3133 12.4688 22.0633 12.5625 21.7821 12.5625ZM20.0321 11.875C20.3758 11.875 20.7196 12.0313 21.0321 12.1563C21.3133 12.2813 21.5633 12.375 21.8133 12.375C22.0321 12.375 22.2196 12.2813 22.4071 12.0938C22.6258 11.875 22.6883 11.625 22.6571 11.375C22.5321 10.8438 21.7821 10.3437 21.1883 10.0937L18.4696 10.2188C18.0633 10.25 17.6883 10.5313 17.4696 10.9063C17.2821 11.25 17.2821 11.625 17.4383 11.9375C17.5946 12.2188 17.7821 12.3438 18.0946 12.3438C18.3758 12.3438 18.6883 12.2187 19.0008 12.125C19.3446 12 19.6258 11.9062 19.9383 11.9062C19.9383 11.8437 19.9696 11.8438 20.0321 11.875Z" fill="#231F20"/>
</g>
<mask id="mask32_1660_6485" style="mask-type:luminance" maskUnits="userSpaceOnUse" x="5" y="0" width="30" height="40">
<path d="M5.875 0.3125H34.1562V39.6875H5.875V0.3125Z" fill="white"/>
</mask>
<g mask="url(#mask32_1660_6485)">
<path fill-rule="evenodd" clip-rule="evenodd" d="M18.3116 10.0312C18.2491 8.56243 21.0616 8.37493 21.3741 9.59368C21.7178 10.8437 18.4366 11.1249 18.3116 10.0312Z" fill="black"/>
</g>
</svg>
