<svg width="40" height="40" viewBox="0 0 40 40" fill="none" xmlns="http://www.w3.org/2000/svg">
<g clip-path="url(#clip0_1660_6466)">
<path d="M8.52309 0.0343533C8.46059 0.0587283 6.70434 1.05935 4.6209 2.25685C2.09653 3.7081 0.799964 4.47248 0.730589 4.54435C0.671214 4.61467 0.624339 4.69498 0.593714 4.78185C0.541527 4.9581 0.537777 30.7147 0.590589 30.9C0.609652 30.9719 0.671839 31.0775 0.728089 31.1356C0.864339 31.2794 15.9356 39.945 16.1187 39.9869C16.2037 40.0072 16.299 40.0037 16.3937 39.9775C16.5993 39.9259 31.6312 31.2794 31.765 31.1381C31.8197 31.0772 31.8822 30.9719 31.9025 30.9003C31.9287 30.815 31.9384 29.469 31.9384 26.6331V22.4894L35.6028 20.3847C39.0578 18.3981 39.2693 18.2737 39.3581 18.1375L39.4487 17.9906V13.5272C39.4487 8.66842 39.4581 8.94185 39.2659 8.76623C39.2143 8.7206 37.454 7.69342 35.3503 6.48185L31.529 4.28435H31.1043L27.3659 6.43123C25.3078 7.61498 23.5584 8.62717 23.4731 8.68217C23.3881 8.73842 23.2865 8.84216 23.245 8.91748L23.1693 9.04779L23.1525 13.2525L23.1375 17.4587L20.0503 19.2369C18.3522 20.2131 16.9387 21.0212 16.9087 21.0287C16.854 21.044 16.8503 20.6437 16.8503 12.9144V4.77904L16.769 4.63935C16.6672 4.46904 17.124 4.7406 12.5365 2.10373C8.68934 -0.108772 8.78184 -0.0625217 8.52309 0.0343533ZM12.0597 3.25529C13.669 4.17873 14.9859 4.94279 14.9859 4.95217C14.9859 4.96185 13.5747 5.77748 11.85 6.76873L8.71215 8.57029L5.57996 6.76904C3.85903 5.77748 2.44871 4.96185 2.44871 4.95217C2.44871 4.94279 3.85653 4.12717 5.57778 3.1381L8.70246 1.3406L8.91809 1.4581C9.96715 2.05404 11.0143 2.6531 12.0597 3.25529ZM34.4559 7.39935C36.1503 8.37498 37.5522 9.18123 37.5653 9.19435C37.6009 9.22654 31.3859 12.799 31.3009 12.7953C31.2159 12.7928 25.0775 9.2531 25.08 9.20998C25.0831 9.16092 31.259 5.60779 31.3215 5.61748C31.35 5.62435 32.7612 6.42685 34.4559 7.39935ZM5.09465 7.91498L8.08153 9.63467L8.09871 18.1494L8.11434 26.6656L8.18715 26.7806C8.22528 26.8412 8.29715 26.924 8.34965 26.9622C8.39903 26.9981 10.0612 27.9453 12.0428 29.0634L15.6428 31.0965V34.6987C15.6428 36.6756 15.6293 38.2975 15.6125 38.2975C15.5997 38.2975 12.4875 36.5165 8.69872 34.3362L1.81121 30.3753L1.80184 18.1984L1.7959 6.02529L1.94903 6.10998C2.03746 6.15685 3.45121 6.96873 5.09434 7.91467L5.09465 7.91498ZM15.6428 13.9087V21.7553L15.5218 21.8344C15.3578 21.9381 9.3759 25.3765 9.35559 25.3765C9.34621 25.3765 9.33871 21.834 9.33871 17.5037L9.34246 9.63435L12.4675 7.83685C14.1859 6.84779 15.6031 6.04529 15.62 6.05123C15.6322 6.05873 15.6428 9.59498 15.6428 13.9087ZM27.5647 12.104L30.6968 13.905V17.475C30.6968 20.8619 30.6934 21.0437 30.6418 21.024C30.6084 21.0112 29.1912 20.199 27.4909 19.2197L24.394 17.4415V13.8728C24.394 11.9081 24.404 10.3028 24.4134 10.3028C24.4268 10.3028 25.8437 11.1128 27.5647 12.104ZM38.2409 13.85C38.2409 15.8044 38.2278 17.4162 38.2147 17.4319C38.1922 17.4678 31.9972 21.0375 31.9578 21.0375C31.9481 21.0375 31.9384 19.4328 31.9384 17.4678V13.899L35.0634 12.1003C36.7843 11.1128 38.2015 10.3028 38.2147 10.3028C38.2312 10.3028 38.2409 11.8981 38.2409 13.85ZM29.9987 22.1665L16.2525 30.0125L10.0184 26.4665C10.0184 26.4665 23.7509 18.524 23.8059 18.5447L29.9987 22.1665ZM30.6909 26.8L30.6803 30.3756L23.7965 34.3369C20.009 36.5169 16.8959 38.2978 16.8803 38.2978C16.8637 38.2978 16.8506 36.8422 16.8506 34.699V31.0969L23.7506 27.1619C27.5418 24.9984 30.6572 23.2275 30.6737 23.2237C30.6872 23.2237 30.6931 24.8325 30.6906 26.7997L30.6909 26.8Z" fill="#F0513F"/>
</g>
<defs>
<clipPath id="clip0_1660_6466">
<rect width="40" height="40" fill="white"/>
</clipPath>
</defs>
</svg>
