<svg width="40" height="40" viewBox="0 0 40 40" fill="none" xmlns="http://www.w3.org/2000/svg">
<path d="M33.332 5H24.9987C24.0782 5 23.332 5.74619 23.332 6.66667V15C23.332 15.9205 24.0782 16.6667 24.9987 16.6667H33.332C34.2525 16.6667 34.9987 15.9205 34.9987 15V6.66667C34.9987 5.74619 34.2525 5 33.332 5Z" stroke="#00A270" stroke-width="4.16489" stroke-linecap="round" stroke-linejoin="round"/>
<path d="M16.6667 35V13.3333C16.6667 12.8913 16.4911 12.4673 16.1785 12.1548C15.866 11.8422 15.442 11.6666 15 11.6666H6.66667C6.22464 11.6666 5.80072 11.8422 5.48816 12.1548C5.17559 12.4673 5 12.8913 5 13.3333V33.3333C5 33.7753 5.17559 34.1992 5.48816 34.5118C5.80072 34.8244 6.22464 35 6.66667 35H26.6667C27.1087 35 27.5326 34.8244 27.8452 34.5118C28.1577 34.1992 28.3333 33.7753 28.3333 33.3333V25C28.3333 24.5579 28.1577 24.134 27.8452 23.8214C27.5326 23.5089 27.1087 23.3333 26.6667 23.3333H5" stroke="#00A270" stroke-width="4.16489" stroke-linecap="round" stroke-linejoin="round"/>
</svg>
