<svg width="40" height="40" viewBox="0 0 40 40" fill="none" xmlns="http://www.w3.org/2000/svg">
<path d="M36.6673 20H32.534C31.8056 19.9985 31.0967 20.2355 30.5159 20.675C29.935 21.1144 29.514 21.732 29.3173 22.4334L25.4007 36.3667C25.3754 36.4533 25.3228 36.5293 25.2506 36.5834C25.1785 36.6375 25.0908 36.6667 25.0007 36.6667C24.9105 36.6667 24.8228 36.6375 24.7507 36.5834C24.6785 36.5293 24.6259 36.4533 24.6007 36.3667L15.4007 3.63337C15.3754 3.54683 15.3228 3.4708 15.2507 3.41671C15.1785 3.36261 15.0908 3.33337 15.0007 3.33337C14.9105 3.33337 14.8228 3.36261 14.7507 3.41671C14.6785 3.4708 14.6259 3.54683 14.6007 3.63337L10.684 17.5667C10.4881 18.2653 10.0696 18.8809 9.49209 19.3201C8.91456 19.7592 8.20952 19.998 7.48398 20H3.33398" stroke="#00A270" stroke-width="4.16667" stroke-linecap="round" stroke-linejoin="round"/>
</svg>
