<svg width="40" height="40" viewBox="0 0 40 40" fill="none" xmlns="http://www.w3.org/2000/svg">
<g clip-path="url(#clip0_1660_6620)">
<path d="M23.5384 0.125068C23.2578 0.125068 22.9772 0.187256 22.7278 0.280693C23.2578 0.623818 23.5384 1.09132 23.6944 1.62132C23.6944 1.68382 23.7256 1.74632 23.7256 1.80851C23.7256 1.87101 23.7569 1.93319 23.7569 1.99538C23.7881 2.89976 23.5072 3.02444 23.3203 3.55444C23.0084 4.24007 23.1022 4.98851 23.4762 5.58069C23.5075 5.64319 23.5388 5.73694 23.6009 5.79913C23.1956 3.18038 25.3778 2.80601 25.7831 1.99538C25.8144 1.27851 25.2222 0.811006 24.7544 0.467881C24.2869 0.187256 23.9125 0.124756 23.5387 0.124756L23.5384 0.125068ZM26.8125 0.685693C26.7812 0.935068 26.8125 0.872881 26.7812 0.997568C26.7812 1.09101 26.7812 1.18444 26.75 1.27819C26.7188 1.37163 26.7188 1.43413 26.6875 1.52757C26.6562 1.62132 26.6253 1.68351 26.5941 1.77694C26.5628 1.83944 26.5316 1.90163 26.5003 1.99507C26.4694 2.02632 26.4381 2.08882 26.4072 2.12007C26.3759 2.15132 26.3759 2.18226 26.3447 2.21351C26.2822 2.27601 26.2509 2.36913 26.1888 2.43163L26.0019 2.61882C25.9394 2.68132 25.8769 2.74351 25.8147 2.77444C25.5966 2.93069 25.3472 3.05507 25.1287 3.21101C25.0662 3.27351 24.9728 3.30476 24.9106 3.36694C24.8481 3.42944 24.7856 3.46069 24.7234 3.52288L24.5366 3.70976C24.4741 3.77226 24.4116 3.83476 24.3803 3.92819C24.3181 3.99069 24.2869 4.08413 24.2247 4.14632C24.1934 4.24007 24.1622 4.30226 24.1 4.39569C24.0688 4.48944 24.0375 4.55194 24.0063 4.64507C23.975 4.73882 23.9441 4.83226 23.9441 4.89444C23.9441 4.92569 23.9441 4.98819 23.9128 5.01944C23.9128 5.05069 23.9128 5.11288 23.8816 5.14413V5.58038C23.8816 5.67413 23.8816 5.73663 23.9128 5.82976C23.9128 5.92351 23.9441 5.98601 23.9753 6.07944C24.0066 6.17288 24.0378 6.23507 24.0691 6.32882C24.1 6.39132 24.1313 6.42226 24.1313 6.48476L21.7616 5.58038C21.3707 5.462 20.9757 5.35808 20.5772 5.26882C20.3587 5.20632 20.1406 5.17507 19.9222 5.11257C19.3036 4.9887 18.6793 4.89515 18.0516 4.83226H17.9891C17.3656 4.76976 16.7734 4.73851 16.15 4.73851C15.6822 4.73851 15.2456 4.76976 14.8094 4.80101C14.1856 4.83226 13.5625 4.92601 12.9387 5.01944L12.4709 5.11288C12.1594 5.17538 11.8475 5.23757 11.5356 5.33101C11.3797 5.36226 11.2241 5.42476 11.0681 5.45601C10.9122 5.51819 10.7563 5.58038 10.6316 5.64288C10.5069 5.70538 10.4134 5.73663 10.2887 5.79882C10.2575 5.79882 10.2575 5.79882 10.2262 5.83007C10.1325 5.89226 10.0394 5.92351 9.94563 5.98569C9.91438 5.98569 9.88313 6.01694 9.88313 6.01694C9.75875 6.07944 9.665 6.14194 9.57156 6.17288C9.50906 6.20413 9.41562 6.23538 9.35344 6.26663C9.32219 6.29757 9.29094 6.29757 9.25969 6.32882C9.16625 6.39132 9.07281 6.42226 8.97906 6.48444C8.88562 6.54694 8.79219 6.57819 8.72969 6.64069C8.66719 6.70288 8.57375 6.73413 8.51156 6.79632C8.51156 6.79632 8.48031 6.79632 8.48031 6.82757C8.41781 6.85882 8.35563 6.92132 8.29344 6.98351L8.26219 7.01476C8.19969 7.04601 8.16844 7.10819 8.10625 7.13944C8.075 7.13944 8.075 7.17069 8.04375 7.17069C7.98156 7.20194 7.95031 7.26413 7.88813 7.29507C7.88813 7.32632 7.85687 7.32632 7.85687 7.32632L7.66969 7.51351L7.63844 7.54476L7.45156 7.73163C7.45156 7.73163 7.45156 7.76288 7.42031 7.76288L7.26438 7.91882C7.23313 7.95007 7.20187 7.95007 7.20187 7.98132L7.015 8.16819C7.015 8.19944 6.98375 8.19944 6.98375 8.23069L6.73438 8.47976L6.70312 8.51101C6.5475 8.69819 6.36031 8.85413 6.17344 9.01007C5.98625 9.16569 5.79906 9.32163 5.58094 9.47757C5.36281 9.63351 5.17563 9.75819 4.9575 9.88288C4.73906 10.0076 4.52094 10.101 4.30281 10.1948C4.08437 10.2882 3.86625 10.3816 3.64812 10.4441C3.21156 10.5379 2.775 10.7248 2.40094 10.7557C2.40094 10.6001 2.30719 10.631 2.21375 10.631C2.12031 10.6623 2.02688 10.6623 1.96437 10.6935C1.87062 10.7248 1.80844 10.756 1.715 10.7873C1.62607 10.8159 1.54199 10.8578 1.46563 10.9116C1.40313 10.9741 1.30969 11.0054 1.2475 11.0679C1.185 11.1301 1.09125 11.1923 1.02906 11.2548C0.966563 11.3173 0.873125 11.3794 0.810938 11.4416C0.748438 11.5041 0.685938 11.5666 0.62375 11.6601C0.56125 11.7535 0.499063 11.8157 0.467812 11.9094C0.405625 11.9719 0.374375 12.0654 0.312187 12.1588C0.280937 12.2526 0.218437 12.3457 0.187187 12.4394L0.09375 12.7201C0.0625 12.8135 0.0625 12.8757 0.03125 12.9694V13.0007C0 13.0944 0 13.2188 0 13.2813C0.03125 13.2501 0.03125 13.3126 0.03125 13.3748V13.4994C0.03125 13.5619 0.0625 13.6241 0.0625 13.6863C0.09375 13.7488 0.09375 13.8113 0.125 13.8735C0.155938 13.936 0.187187 13.9982 0.249375 14.0607C0.280625 14.1232 0.343125 14.1854 0.374375 14.2476C0.436562 14.3101 0.49875 14.3726 0.56125 14.4035C0.62375 14.466 0.685938 14.5285 0.748125 14.5594C0.9975 14.7776 1.06 14.8401 1.37187 15.0269C1.43437 15.0582 1.46531 15.0894 1.52781 15.1207H1.55906V15.1832C1.55906 15.2763 1.59031 15.3388 1.62125 15.4323C1.6525 15.526 1.68375 15.6194 1.715 15.6816L1.80812 15.8688C1.80812 15.9001 1.83938 15.9001 1.83938 15.9313C1.87063 16.0248 1.93312 16.0869 1.96437 16.1494C2.02656 16.2119 2.05781 16.3054 2.12 16.3676L2.30719 16.5548L2.49406 16.7416H2.52531C2.58781 16.8041 2.65 16.8354 2.7125 16.8979C2.775 16.9604 2.86844 16.9913 2.93062 17.0223C2.99313 17.0535 3.08656 17.116 3.18 17.1473C3.2425 17.1785 3.305 17.2094 3.39812 17.2094C3.39812 17.2094 3.42937 17.2094 3.42937 17.2407C3.46062 17.2407 3.52312 17.2719 3.55437 17.2719C3.52312 17.8329 3.52312 18.3629 3.58562 18.5501C3.67875 18.7682 4.14656 18.1135 4.58313 17.3966C4.52063 18.1135 4.48938 18.9554 4.58313 19.2048C4.70781 19.4541 5.3 18.6435 5.86125 17.7704C13.1566 16.0869 19.8284 21.1376 20.5456 28.2773C20.4206 27.1548 19.0487 26.5313 18.3944 26.6873C18.0825 27.4354 17.5525 28.4332 16.7109 29.0254C16.7731 28.3394 16.7422 27.6535 16.6172 26.9679C16.3991 27.9032 15.9625 28.8073 15.3391 29.5554C14.3725 29.6179 13.375 29.1501 12.8759 28.4332C12.8447 28.4019 12.8134 28.3394 12.7825 28.3082C12.7512 28.246 12.72 28.1526 12.6888 28.0901C12.6575 28.0276 12.6266 27.9341 12.6266 27.8719V27.4979C12.6266 27.4354 12.6578 27.3416 12.6891 27.2794C12.7203 27.2173 12.7203 27.1235 12.7516 27.0613C12.7825 26.9988 12.8137 26.9054 12.8759 26.8432C13.0631 26.3441 13.0631 25.9388 12.72 25.7207L12.5331 25.6269C12.5019 25.6269 12.4394 25.596 12.4081 25.596C12.3769 25.596 12.3459 25.5648 12.3147 25.5648C12.2525 25.5335 12.1591 25.5335 12.0966 25.5023C12.0341 25.471 11.9406 25.471 11.8784 25.471C11.8159 25.471 11.7222 25.4401 11.66 25.4401H11.5044C11.4106 25.4401 11.3481 25.4401 11.2859 25.4713C11.2234 25.4713 11.13 25.5026 11.0678 25.5026C11.0053 25.5338 10.9119 25.5338 10.8494 25.5651C10.7872 25.596 10.7247 25.6273 10.6313 25.6582L10.4441 25.7519C8.04344 27.3107 9.47781 30.9894 11.0991 32.0494C10.4753 32.1744 9.85188 32.2988 9.66469 32.4238L9.63344 32.4551C10.07 32.7354 10.5378 32.9538 11.0366 33.1407C11.6913 33.3591 12.4084 33.546 12.72 33.6398C13.5619 33.8266 14.435 33.8891 15.3078 33.8266C19.8597 33.5148 23.6009 30.0232 24.2866 25.4713C24.3178 25.5651 24.3178 25.6582 24.3491 25.7519C24.3803 25.9388 24.4116 26.126 24.4428 26.3441C24.4741 26.4379 24.4741 26.5313 24.4741 26.6248V26.656C24.4741 26.7498 24.505 26.8432 24.505 26.9366C24.505 27.0613 24.5362 27.1548 24.5362 27.2794V28.5888C24.5362 28.6826 24.505 28.7451 24.505 28.8385V28.9319C24.505 29.0257 24.4738 29.1191 24.4738 29.2438C24.4425 29.3373 24.4425 29.4307 24.4112 29.5244V29.5557C24.38 29.6491 24.38 29.7426 24.3491 29.836V29.8673C24.3178 29.961 24.3178 30.0544 24.2866 30.1479V30.1791L24.1931 30.4598V30.491C24.1619 30.5844 24.1306 30.7091 24.0997 30.8026C24.0684 30.8963 24.0372 30.9898 23.9747 31.1144C23.9438 31.2079 23.9125 31.3326 23.8503 31.426C23.8191 31.5198 23.7566 31.6132 23.7253 31.7379C23.6944 31.8316 23.6319 31.9251 23.6009 32.0185C23.6009 32.0498 23.5697 32.081 23.5697 32.081C23.5697 32.081 23.5697 32.1123 23.5384 32.1123C22.8837 33.4526 21.8862 34.6373 20.6391 35.5726C20.5453 35.6351 20.4831 35.6976 20.3897 35.7598C20.3584 35.791 20.3272 35.791 20.3272 35.8223C20.2647 35.8844 20.1712 35.9157 20.1091 35.9779L20.1403 36.0404C20.2959 36.0091 20.4209 36.0091 20.5766 35.9779C20.8572 35.9466 21.1066 35.8841 21.3872 35.8219C21.4497 35.8219 21.5434 35.7907 21.6056 35.7594C21.6681 35.7594 21.6991 35.7282 21.7612 35.7282C21.8234 35.7282 21.9175 35.6973 21.9797 35.6973C22.0422 35.666 22.1044 35.666 22.1666 35.6348C23.1956 35.3857 24.1931 35.0426 25.1597 34.6373C23.5072 36.8819 21.325 38.6904 18.7684 39.8748C19.9531 39.7813 21.1378 39.5944 22.2913 39.2513C26.4332 38.0351 29.9285 35.2345 32.0184 31.4573C31.5822 33.8266 30.6466 36.1026 29.2438 38.0979C30.2416 37.4432 31.1456 36.6635 31.9875 35.8219C34.2944 33.4213 35.8219 30.3348 36.3209 27.0613C36.6641 28.6826 36.7887 30.366 36.6328 32.0185C44.0841 21.6366 37.2562 10.8807 34.3881 8.04351C34.3881 8.01226 34.3569 8.01226 34.3569 7.98101C34.3569 8.10601 34.3569 8.23038 34.3256 8.35538C34.2944 8.60476 34.2631 8.82288 34.2319 9.04101C34.1697 9.25944 34.1075 9.50882 34.045 9.72694C33.9825 9.94538 33.8891 10.1635 33.7956 10.3816C33.7019 10.6001 33.6084 10.8182 33.4837 11.0054C33.3591 11.1926 33.2344 11.4107 33.1097 11.5976C32.985 11.7848 32.8291 11.9716 32.6731 12.1588C32.5175 12.346 32.3616 12.5016 32.1744 12.6888C32.0806 12.7826 31.9875 12.876 31.8628 12.9382C31.7691 13.0007 31.7066 13.0632 31.6131 13.1563C31.4263 13.3126 31.2391 13.4369 31.0209 13.5616C30.8337 13.6866 30.6156 13.8113 30.3975 13.9048L29.7425 14.1854C29.5244 14.2788 29.3062 14.3413 29.0878 14.4035C28.8697 14.466 28.6203 14.5285 28.4019 14.5594C28.1525 14.5907 27.9344 14.6219 27.7163 14.6532C27.56 14.6532 27.3731 14.6841 27.2172 14.6841C26.9678 14.6841 26.7497 14.6529 26.5316 14.6529C26.2819 14.6216 26.0638 14.5904 25.8456 14.5591C25.6091 14.5304 25.3781 14.4674 25.1597 14.3723C25.3778 14.341 25.6272 14.341 25.8456 14.2788C26.095 14.2476 26.3131 14.1851 26.5316 14.1229C26.7497 14.0604 26.9991 13.9982 27.1863 13.9048L27.8409 13.6241C28.0591 13.5304 28.2463 13.406 28.4644 13.2813C28.6516 13.1563 28.8697 13.0007 29.0569 12.876C29.2438 12.7198 29.4309 12.5641 29.5869 12.4082C29.7738 12.2523 29.9297 12.0654 30.0856 11.9094C30.2416 11.7223 30.3975 11.5354 30.5222 11.3482C30.5534 11.3169 30.5534 11.2857 30.5847 11.2544C30.6778 11.0988 30.8025 10.9116 30.8962 10.756C31.0125 10.5545 31.1166 10.3462 31.2078 10.1323C31.3016 9.91413 31.3953 9.69569 31.4575 9.47757L31.6444 8.82288C31.6756 8.57351 31.7381 8.35538 31.7381 8.13694C31.7694 7.88757 31.7694 7.66944 31.7694 7.45101C31.7694 7.29538 31.7694 7.10819 31.7381 6.95226C31.7069 6.70288 31.6756 6.48476 31.6444 6.26632C31.6131 6.01694 31.5506 5.79882 31.4884 5.58038C31.4259 5.36226 31.3325 5.14413 31.2703 4.92569C31.1766 4.70757 31.0831 4.48944 30.9897 4.30226C30.865 4.08413 30.7716 3.89694 30.6469 3.67882C30.5219 3.49163 30.3663 3.30444 30.2416 3.11757C30.0856 2.93038 29.9297 2.77444 29.7738 2.58757C29.6803 2.49382 29.5869 2.40038 29.4931 2.33819C29.0256 1.96413 28.5578 1.65226 28.0591 1.34038C27.9966 1.30913 27.9344 1.27788 27.8409 1.24663C27.4356 0.904131 27.1241 0.810381 26.8125 0.685693Z" fill="#DF234F"/>
</g>
<defs>
<clipPath id="clip0_1660_6620">
<rect width="40" height="40" fill="white"/>
</clipPath>
</defs>
</svg>
