<svg width="40" height="40" viewBox="0 0 40 40" fill="none" xmlns="http://www.w3.org/2000/svg">
<path d="M20.9246 0.257824C20.6376 0.0933615 20.3125 0.00683594 19.9816 0.00683594C19.6508 0.00683594 19.3257 0.0933615 19.0387 0.257824L3.46992 9.30001C2.87773 9.63501 2.54492 10.2672 2.54492 10.9375V29.0588C2.54492 29.7284 2.91461 30.3609 3.4693 30.6963L19.038 39.7381C19.3251 39.9027 19.6503 39.9892 19.9812 39.9892C20.3121 39.9892 20.6372 39.9027 20.9243 39.7381L36.493 30.6959C37.0849 30.3609 37.4174 29.7284 37.4174 29.0584V10.9375C37.4174 10.2675 37.0477 9.63532 36.493 9.30001L20.9246 0.257824Z" fill="url(#paint0_linear_1660_6468)"/>
<path d="M36.5311 9.2999L20.8886 0.257715C20.735 0.179647 20.5738 0.11735 20.4077 0.0717773L2.87891 30.2493C3.02389 30.4275 3.19918 30.5788 3.39672 30.6961L19.0395 39.738C19.4833 39.9983 20.0008 40.073 20.4817 39.924L36.938 9.6349C36.8299 9.49342 36.6907 9.37878 36.5311 9.2999Z" fill="url(#paint1_linear_1660_6468)"/>
<path d="M36.5313 30.6954C36.9751 30.4351 37.3079 29.9885 37.4557 29.5048L20.3338 0.0338309C19.8901 -0.0405441 19.4091 -0.00335664 19.0026 0.257268L3.4707 9.26227L20.2226 39.9982C20.4445 39.9607 20.7038 39.8863 20.9257 39.7748L36.5313 30.6954Z" fill="url(#paint2_linear_1660_6468)"/>
<defs>
<linearGradient id="paint0_linear_1660_6468" x1="26.3217" y1="6.99143" x2="12.1034" y2="35.8165" gradientUnits="userSpaceOnUse">
<stop stop-color="#3F873F"/>
<stop offset="0.33" stop-color="#3F8B3D"/>
<stop offset="0.637" stop-color="#3E9638"/>
<stop offset="0.934" stop-color="#3DA92E"/>
<stop offset="1" stop-color="#3DAE2B"/>
</linearGradient>
<linearGradient id="paint1_linear_1660_6468" x1="17.6166" y1="22.1142" x2="57.2871" y2="-7.01629" gradientUnits="userSpaceOnUse">
<stop offset="0.138" stop-color="#3F873F"/>
<stop offset="0.402" stop-color="#52A044"/>
<stop offset="0.713" stop-color="#64B749"/>
<stop offset="0.908" stop-color="#6ABF4B"/>
</linearGradient>
<linearGradient id="paint2_linear_1660_6468" x1="1.9756" y1="19.9921" x2="38.0007" y2="19.9921" gradientUnits="userSpaceOnUse">
<stop offset="0.092" stop-color="#6ABF4B"/>
<stop offset="0.287" stop-color="#64B749"/>
<stop offset="0.598" stop-color="#52A044"/>
<stop offset="0.862" stop-color="#3F873F"/>
</linearGradient>
</defs>
</svg>
