<svg width="40" height="40" viewBox="0 0 40 40" fill="none" xmlns="http://www.w3.org/2000/svg">
<g clip-path="url(#clip0_1660_6476)">
<path d="M12.2709 34.0531L12.1821 33.8759C12.0049 33.5212 12.0049 33.1665 12.0937 32.7231H2.51838L16.7043 7.54372L22.6446 18.2718L24.5949 16.8531L18.6546 6.12497C18.5662 5.94778 17.8568 4.88403 16.7043 4.88403C16.1721 4.88403 15.3743 5.06122 14.7537 6.21372L0.390565 31.6593C0.301815 31.9256 -0.31881 33.0781 0.213065 34.0531C0.567752 34.5853 1.09994 35.1172 2.34119 35.1172H14.399C13.1578 35.1172 12.5371 34.585 12.2709 34.0531Z" fill="#00C58E"/>
<path d="M39.5786 31.747L28.0527 11.0004C27.8755 10.8232 27.2548 9.67041 26.102 9.67041C25.5702 9.67041 24.7723 9.93635 24.1517 11.0004L22.6445 13.4829V18.2707L26.1023 12.3304L37.5395 32.7223H33.1952C33.2678 33.1444 33.2057 33.5787 33.0177 33.9635L32.9289 34.0523C32.397 35.0273 31.067 35.116 30.8898 35.116H37.628C37.8939 35.116 39.1352 35.0276 39.7558 34.0523C40.0217 33.6088 40.1992 32.811 39.5786 31.747Z" fill="#108775"/>
<path d="M33.285 34.0532V33.9644L33.3738 33.7873C33.4622 33.4326 33.551 33.0779 33.4622 32.7232L33.1078 31.6594L24.0647 15.8779L22.7347 13.4841H22.646L21.316 15.8779L12.2728 31.6591L11.9185 32.7232C11.8326 33.174 11.8947 33.6406 12.0957 34.0532C12.4503 34.5851 12.9822 35.1173 14.2235 35.1173H31.0691C31.335 35.1173 32.665 35.0285 33.2857 34.0532H33.285ZM22.6457 18.2716L30.8913 32.7232H14.4003L22.6457 18.2716Z" fill="#2F495E"/>
</g>
<defs>
<clipPath id="clip0_1660_6476">
<rect width="40" height="40" fill="white"/>
</clipPath>
</defs>
</svg>
