<svg width="40" height="40" viewBox="0 0 40 40" fill="none" xmlns="http://www.w3.org/2000/svg">
<path d="M16.666 21.6667C17.3818 22.6236 18.2949 23.4153 19.3436 23.9883C20.3923 24.5612 21.5519 24.9019 22.7438 24.9872C23.9357 25.0726 25.132 24.9006 26.2516 24.483C27.3712 24.0653 28.3879 23.4118 29.2327 22.5667L34.2327 17.5667C35.7507 15.995 36.5906 13.89 36.5716 11.705C36.5526 9.52004 35.6762 7.42994 34.1312 5.88487C32.5861 4.3398 30.496 3.46339 28.311 3.44441C26.1261 3.42542 24.021 4.26537 22.4493 5.78336L19.5827 8.63336" stroke="#00A270" stroke-width="4.16489" stroke-linecap="round" stroke-linejoin="round"/>
<path d="M23.3337 18.3333C22.6179 17.3764 21.7047 16.5847 20.6561 16.0117C19.6074 15.4388 18.4478 15.0981 17.2559 15.0127C16.064 14.9274 14.8677 15.0994 13.7481 15.517C12.6285 15.9346 11.6118 16.5882 10.767 17.4333L5.767 22.4333C4.24902 24.005 3.40906 26.11 3.42805 28.295C3.44704 30.48 4.32344 32.5701 5.86851 34.1151C7.41358 35.6602 9.50368 36.5366 11.6887 36.5556C13.8736 36.5746 15.9786 35.7346 17.5503 34.2166L20.4003 31.3666" stroke="#00A270" stroke-width="4.16489" stroke-linecap="round" stroke-linejoin="round"/>
</svg>
