<svg width="40" height="40" viewBox="0 0 40 40" fill="none" xmlns="http://www.w3.org/2000/svg">
<g clip-path="url(#clip0_1660_6622)">
<path fill-rule="evenodd" clip-rule="evenodd" d="M34.2749 4.60526C30.4605 2.72308 26.5537 2.53151 22.5537 3.94558C18.8727 5.24683 15.9365 7.57526 13.7537 10.7465C10.0602 16.1128 7.37742 21.9681 5.87398 28.3287C5.10398 31.584 4.60523 35.0368 4.7393 38.3987C4.75023 38.6715 4.79086 38.75 4.81773 39.375H23.6821C23.628 38.75 23.5924 38.9325 23.5455 38.8134C22.5487 36.2596 21.7721 33.6252 21.2243 30.939C20.4437 27.1106 20.0349 23.2112 20.8412 19.3475C21.9696 13.9371 25.0537 10.0334 30.2527 8.00901C33.1977 6.86308 35.993 7.18901 38.4446 9.34089C38.4671 9.36058 38.5134 9.3487 38.5734 9.35839L39.3749 8.14495C37.8312 6.67526 36.1349 5.52339 34.2749 4.60526ZM1.0418 29.4981C0.898047 30.724 0.763672 31.8718 0.623047 33.0765L4.1018 33.494L4.73898 29.7775L1.0418 29.4981ZM7.86992 18.815L4.59773 17.5346L3.54023 20.5368L6.87492 21.6056C7.21242 20.6584 7.52992 19.7675 7.86992 18.815ZM23.3134 35.5834C24.4305 35.6665 25.5499 35.7237 26.783 35.7956C26.3352 34.8646 25.9374 34.0228 25.5209 33.1909C25.4752 33.1006 25.3212 33.0134 25.2165 33.0118C24.2687 32.9981 23.3202 33.004 22.313 33.004C22.5399 33.8253 22.7371 34.5831 22.968 35.33C23.0027 35.4428 23.189 35.5743 23.3134 35.5834ZM13.4159 9.71964L10.9299 8.07339L8.94273 10.2937L11.4984 12.0112L13.4159 9.71964ZM21.3327 26.3975C21.3287 26.4978 21.419 26.6575 21.5071 26.6971C22.4024 27.0996 23.3071 27.4831 24.2921 27.9075C24.2512 27.1287 24.2237 26.4778 24.1771 25.8281C24.1687 25.7112 24.1137 25.5431 24.0271 25.495C23.2049 25.04 22.3712 24.6053 21.4596 24.1215C21.4099 24.9543 21.3593 25.6753 21.3327 26.3975ZM20.5962 3.8437L18.8943 1.91214L16.5509 3.13026L18.2555 5.20651L20.5962 3.8437ZM21.6634 19.2112C21.6124 19.3281 21.6796 19.5759 21.7799 19.6662C22.4596 20.2793 23.1624 20.8662 23.9443 21.5353C24.1234 20.7853 24.2921 20.1168 24.4352 19.4437C24.4605 19.324 24.4252 19.1262 24.3421 19.0593C23.734 18.569 23.1062 18.1021 22.4555 17.6059C22.1696 18.1731 21.8924 18.6818 21.6634 19.2112ZM25.554 2.8287C26.4227 2.85214 27.2924 2.84183 28.2099 2.84183C28.1184 2.20308 28.0746 1.71901 27.9655 1.25058C27.933 1.1112 27.7234 0.925576 27.5818 0.913701C26.7109 0.843076 25.8365 0.815889 24.8784 0.770264C25.0062 1.41495 25.1037 1.98308 25.2415 2.54151C25.2705 2.65995 25.4437 2.82558 25.554 2.8287ZM26.6118 13.9771C26.6562 13.894 26.6674 13.7431 26.6209 13.6706C26.194 13.0028 25.7505 12.3453 25.2915 11.6534L23.804 13.0196L25.8609 15.299C26.1371 14.8181 26.3843 14.4028 26.6118 13.9771ZM28.2165 9.43745L29.1049 11.0878C30.4952 10.3259 30.6284 10.0503 30.1362 8.95214L28.2165 9.43745ZM34.8687 4.35214C35.4471 4.70901 36.058 5.01308 36.6787 5.34745L37.0943 4.70058C36.3374 4.14714 35.6068 3.61183 34.7777 3.00495C34.7452 3.34995 34.6968 3.59089 34.7093 3.82901C34.7193 4.01058 34.7496 4.27901 34.8687 4.35214ZM34.0618 9.57683C34.6868 9.64464 35.6243 9.70933 36.2493 9.77776V8.92839C35.6243 8.79151 34.6868 8.65589 34.0618 8.51495V9.57683Z" fill="#CC0000"/>
</g>
<defs>
<clipPath id="clip0_1660_6622">
<rect width="40" height="40" fill="white"/>
</clipPath>
</defs>
</svg>
