<svg width="40" height="40" viewBox="0 0 40 40" fill="none" xmlns="http://www.w3.org/2000/svg">
<g clip-path="url(#clip0_1660_6482)">
<path d="M19.6751 0.0755471C19.6026 0.117735 19.2992 0.553047 19.0001 1.04336C18.2501 2.27461 18.242 2.27523 17.2345 1.21523C16.5789 0.525235 16.4204 0.398985 16.2095 0.400547C16.072 0.401172 15.8985 0.448047 15.8235 0.504297C15.7485 0.560547 15.5373 1.00805 15.3535 1.49898C14.9329 2.62398 14.9129 2.65992 14.6798 2.70523C14.536 2.73211 14.2601 2.57805 13.5976 2.10242C13.1085 1.75086 12.6289 1.46336 12.5317 1.46336C12.1282 1.46336 12.0145 1.68398 11.8223 2.83836C11.5785 4.30617 11.5867 4.30117 10.2635 3.70023C9.72917 3.45773 9.22292 3.25961 9.13761 3.25961C9.05198 3.25961 8.89011 3.35117 8.77823 3.46336C8.57448 3.66711 8.57417 3.66805 8.62979 4.79024L8.68542 5.91367L8.47292 6.02742C8.28479 6.12805 8.15511 6.11586 7.32167 5.91867C6.23417 5.6618 6.00417 5.66867 5.78417 5.96555L5.62292 6.18211L5.83917 7.10836C5.95792 7.61773 6.07198 8.10836 6.09354 8.19805C6.11448 8.28773 6.07792 8.43117 6.01229 8.5168C5.90354 8.6568 5.78823 8.66992 4.78104 8.6543C3.07729 8.62742 2.98073 8.77367 3.68417 10.3105C3.90854 10.798 4.09198 11.2418 4.09198 11.2949C4.09198 11.5755 3.86792 11.6774 2.90636 11.8346C2.36823 11.9221 1.90073 11.994 1.86698 11.994C1.83354 11.994 1.73261 12.0674 1.64292 12.1571C1.35011 12.4496 1.43323 12.7246 2.09698 13.6615C2.92386 14.8287 2.92261 14.8334 1.55636 15.3555C0.0029178 15.9499 -0.0286447 16.0962 1.15417 17.218C2.25573 18.2631 2.25729 18.2477 1.01011 19.0318C0.0651054 19.6249 0.0507304 19.6393 0.0266679 19.9612C-0.00239462 20.3527 0.00448033 20.3596 1.13229 21.0487C2.24792 21.7299 2.24792 21.7505 1.15323 22.7862C-0.0242696 23.8999 0.0119804 24.0624 1.56667 24.649C2.92511 25.1615 2.92698 25.1677 2.09854 26.3346C1.62917 26.9962 1.47948 27.2721 1.47948 27.4762C1.47948 27.8584 1.67854 27.9559 2.86698 28.1555C3.86886 28.3243 4.09198 28.4234 4.09198 28.6996C4.09198 28.7565 3.90823 29.2034 3.68354 29.6924C2.98479 31.2143 3.06448 31.3409 4.71792 31.3409C6.25854 31.3409 6.21761 31.294 5.88573 32.6827C5.63573 33.7296 5.63167 33.9302 5.85823 34.1562C6.03136 34.3299 6.35823 34.3106 7.38011 34.0659C8.16104 33.8796 8.29792 33.8668 8.47886 33.9634L8.68511 34.074L8.62979 35.1971C8.57417 36.3199 8.57448 36.3205 8.77823 36.5246C8.89011 36.6371 9.05448 36.7284 9.14229 36.7284C9.23042 36.7284 9.73698 36.5315 10.2685 36.2896C11.5873 35.6909 11.5792 35.6859 11.8226 37.149C12.0154 38.3087 12.1279 38.524 12.5395 38.524C12.6417 38.524 13.1114 38.249 13.5832 37.9121C14.4126 37.3205 14.6276 37.2277 14.8485 37.3684C14.9054 37.4043 15.1267 37.8902 15.3398 38.448C15.6532 39.2684 15.7679 39.4824 15.9426 39.5656C16.2745 39.7249 16.4801 39.5968 17.2607 38.7468C18.2032 37.7199 18.242 37.7249 19.0114 38.9718C19.8614 40.3487 20.0814 40.3456 20.9526 38.944C21.7032 37.7365 21.6945 37.7371 22.7092 38.7971C23.3832 39.5002 23.5267 39.6127 23.7539 39.6127C23.8989 39.6127 24.0723 39.5581 24.1382 39.4915C24.2051 39.4249 24.4257 38.9334 24.6282 38.399C24.831 37.8646 25.041 37.399 25.0954 37.3646C25.3101 37.2284 25.5323 37.324 26.3604 37.9121C26.8479 38.2584 27.3067 38.5246 27.4157 38.5246C27.8207 38.5246 27.967 38.2371 28.1351 37.1074C28.2789 36.1443 28.3082 36.0518 28.4976 35.9559C28.6839 35.8615 28.7957 35.8934 29.6695 36.2902C30.201 36.5309 30.7079 36.7284 30.7957 36.7284C30.8839 36.7284 31.0507 36.634 31.1657 36.5184L31.3757 36.309L31.3182 35.2315C31.2629 34.2034 31.2682 34.1477 31.432 33.9993C31.6007 33.8468 31.6182 33.8474 32.5617 34.063C33.7042 34.324 33.9173 34.3309 34.132 34.1162C34.3417 33.9068 34.3395 33.8605 34.0526 32.6506C33.7307 31.2924 33.6876 31.3412 35.2339 31.3412C36.2882 31.3412 36.4057 31.3259 36.5401 31.1777C36.7645 30.9299 36.711 30.6459 36.2601 29.6843C36.0323 29.1999 35.8476 28.7593 35.8492 28.7046C35.8567 28.419 36.0814 28.3212 37.1195 28.1524C37.7548 28.0496 38.2298 27.9305 38.316 27.8524C38.6045 27.5921 38.4985 27.253 37.8401 26.3296C37.0145 25.1724 37.0182 25.1615 38.3398 24.6743C39.9223 24.0912 39.9676 23.8968 38.7832 22.7712C37.6864 21.729 37.6857 21.7346 38.8873 20.9971C40.3398 20.1055 40.342 19.9046 38.9129 19.0174C37.6839 18.2549 37.6848 18.2655 38.7864 17.2196C39.9676 16.0968 39.9357 15.9499 38.3817 15.3555C37.0104 14.8309 37.006 14.818 37.8395 13.6743C38.3357 12.993 38.4589 12.7671 38.4589 12.5337C38.4589 12.1255 38.2757 12.0343 37.0726 11.8399C36.0676 11.6774 35.8464 11.579 35.8464 11.293C35.8464 11.2387 36.0301 10.8012 36.2548 10.3202C36.6942 9.37867 36.756 9.00148 36.5073 8.77649C36.3735 8.65555 36.1948 8.63805 35.2364 8.65399C34.2339 8.67086 34.1057 8.65649 33.9667 8.5168C33.8148 8.3643 33.8167 8.34274 34.0535 7.35274C34.3445 6.14023 34.3457 6.11055 34.1067 5.88586C33.8639 5.65773 33.7123 5.66148 32.5985 5.92367C31.787 6.11492 31.6526 6.12773 31.4682 6.02898L31.2589 5.91649L31.3167 4.79711L31.3748 3.67836L31.1654 3.46898C31.0501 3.35336 30.887 3.25961 30.802 3.25961C30.7176 3.25961 30.2132 3.45961 29.6823 3.70367C28.7954 4.1118 28.7001 4.13898 28.5082 4.03867C28.317 3.93867 28.2851 3.83961 28.1217 2.84211C27.9332 1.68805 27.8164 1.46336 27.4067 1.46336C27.3095 1.46336 26.8276 1.75242 26.336 2.10555C25.5285 2.68555 25.4204 2.74055 25.2192 2.67023C25.0526 2.61211 24.9557 2.48586 24.8376 2.17055C24.7501 1.93867 24.5823 1.4918 24.4645 1.17773C24.2264 0.543985 24.0935 0.40211 23.737 0.40211C23.5379 0.40211 23.3579 0.545235 22.712 1.21586C21.6964 2.27055 21.6929 2.27023 20.9464 1.04555C20.6479 0.556172 20.336 0.119297 20.2532 0.0749221C20.0667 -0.0250779 19.847 -0.0250779 19.6751 0.0755471ZM20.6001 3.76242C21.4845 4.3918 21.0145 5.8718 19.9301 5.8718C18.8776 5.8718 18.3476 4.60398 19.0989 3.8843C19.5232 3.47805 20.131 3.42836 20.6001 3.76242ZM19.4885 7.67086C20.0682 7.89117 20.306 7.75899 21.6298 6.48336L22.6242 5.52398L23.0451 5.58024C24.3654 5.75524 26.991 6.90836 28.4998 7.97586C29.886 8.95711 31.7285 10.9552 32.5139 12.329L32.6817 12.6234L31.9379 14.2996C31.5285 15.2215 31.1935 16.0724 31.1935 16.1912C31.1935 16.4655 31.3735 16.8996 31.5467 17.043C31.6198 17.104 32.3145 17.4384 33.0901 17.7862L34.4995 18.419L34.5551 18.7777C34.627 19.2449 34.6364 20.3924 34.5714 20.7184L34.5204 20.9734H33.7157C32.7823 20.9734 32.8545 20.8899 32.8039 22.0346C32.767 22.8646 32.5664 23.3234 32.1101 23.6205C31.3673 24.1052 30.1401 24.0174 29.6195 23.4424C29.5398 23.3537 29.3845 22.9096 29.2742 22.4549C28.9523 21.1255 28.5201 20.3799 27.6514 19.6534C27.377 19.4243 27.1529 19.2102 27.1529 19.1777C27.1529 19.1459 27.4545 18.8918 27.8232 18.6143C29.1664 17.6018 29.9389 16.423 30.0232 15.2559C30.1854 13.029 28.4114 10.9537 25.7726 10.2809C25.147 10.1215 24.8798 10.1165 17.1401 10.1165C12.7473 10.1165 9.15261 10.0877 9.15261 10.0527C9.15261 9.97055 10.1292 9.02305 10.7042 8.54774C12.2835 7.24211 14.3348 6.21492 16.4595 5.66648L17.1939 5.47586L18.2376 6.5343C18.8123 7.11649 19.3751 7.62805 19.4885 7.67086ZM6.34386 14.4812C6.82479 14.7962 7.02198 15.5874 6.73761 16.063C6.29854 16.7993 5.18573 16.8302 4.74604 16.1187C4.10667 15.0846 5.33823 13.8221 6.34386 14.4812ZM34.6789 14.5218C35.937 15.2887 34.962 17.1759 33.6151 16.5799C32.716 16.1821 32.687 14.953 33.5667 14.5049C33.9335 14.3174 34.3551 14.324 34.6792 14.5215M10.051 19.2187V23.9124H5.90104L5.73667 23.1984C5.41292 21.7921 5.27667 20.3371 5.35823 19.1455L5.41511 18.3084L6.84167 17.6687C7.73667 17.2677 8.31229 16.9618 8.38636 16.8484C8.71073 16.3534 8.68011 15.9999 8.22448 14.9943L8.01198 14.5249H10.0504V19.2187M21.997 14.7287C22.8854 14.9599 23.3548 15.4302 23.356 16.0896C23.3567 16.574 23.117 16.8771 22.5217 17.1459C22.1004 17.3365 22.0335 17.3412 19.377 17.3671L16.6626 17.3934V14.6059H19.0945C20.9939 14.6059 21.6295 14.6327 21.997 14.7287ZM21.0801 21.4643C21.5207 21.5868 22.0414 21.9693 22.3082 22.3668C22.5889 22.7846 22.7529 23.328 23.1417 25.128C23.4698 26.6499 23.6814 27.1468 24.2729 27.7943C25.0057 28.5962 24.8354 28.5649 28.496 28.5649C30.2492 28.5649 31.6829 28.5931 31.6829 28.6274C31.6829 28.689 30.4757 30.1162 30.4235 30.1162C30.4085 30.1162 29.7779 29.9843 29.0223 29.8227C26.8882 29.3671 26.8114 29.4205 26.3217 31.7077L26.0067 33.1771L25.7223 33.3171C25.2479 33.5515 23.7057 34.0334 22.9067 34.1984C21.5854 34.4702 20.1479 34.5615 18.8845 34.4549C16.7304 34.2721 13.8782 33.4365 13.7667 32.9549C13.7432 32.8527 13.5995 32.1915 13.4485 31.4849C13.297 30.7787 13.1129 30.1087 13.0392 29.9962C12.686 29.4574 12.3148 29.4243 10.6807 29.7855C10.062 29.923 9.52198 30.0343 9.48073 30.0343C9.40323 30.0343 8.25479 28.7065 8.25479 28.6171C8.25479 28.589 10.9823 28.5565 14.316 28.5452L20.377 28.5246L20.3989 26.3715C20.4145 24.8512 20.3932 24.1849 20.327 24.1059C20.2539 24.0171 19.8629 23.994 18.4485 23.994H16.6626V21.3815L18.7242 21.3818C19.8573 21.3824 20.9179 21.4193 21.0801 21.4643ZM11.7407 31.2562C12.7045 31.8437 12.2423 33.3824 11.1023 33.3812C9.93354 33.3812 9.50011 31.8562 10.496 31.2481C10.8257 31.0471 11.4048 31.0512 11.7407 31.2562ZM29.3907 31.3205C29.8632 31.6668 30.0204 32.3871 29.7279 32.8674C28.9592 34.1281 27.0367 33.1259 27.6789 31.799C27.9945 31.1474 28.8335 30.9121 29.3907 31.3205Z" fill="black"/>
</g>
<defs>
<clipPath id="clip0_1660_6482">
<rect width="40" height="40" fill="white"/>
</clipPath>
</defs>
</svg>
