<svg width="40" height="40" viewBox="0 0 40 40" fill="none" xmlns="http://www.w3.org/2000/svg">
<g clip-path="url(#clip0_1660_6463)">
<path d="M39.4781 10.6437C39.4779 9.82187 39.3952 9.00214 39.2313 8.19683C39.0673 7.37242 38.7885 6.57508 38.4031 5.82808C38.0004 5.10453 37.4998 4.43995 36.9156 3.85308C36.3131 3.26351 35.6132 2.78248 34.8469 2.4312C34.0906 2.04986 33.2817 1.78339 32.4469 1.64058C31.6188 1.4812 30.7094 1.4812 29.8813 1.40308H9.45312C8.81589 1.41345 8.18008 1.4667 7.55 1.56245C6.92473 1.63606 6.31266 1.79591 5.73125 2.03745C5.56562 2.11558 5.31875 2.19683 5.15312 2.27495C4.60305 2.56981 4.08017 2.91282 3.59063 3.29995C3.425 3.45933 3.25937 3.53745 3.09375 3.6937C2.48471 4.2586 1.98102 4.92736 1.60625 5.6687C1.19698 6.40521 0.916886 7.20637 0.778125 8.03745C0.654975 8.84844 0.57258 9.66509 0.53125 10.4843V29.3562C0.531507 30.178 0.614213 30.9978 0.778125 31.8031C0.942119 32.6275 1.22087 33.4248 1.60625 34.1718C2.009 34.8954 2.50954 35.56 3.09375 36.1468C3.6963 36.7364 4.39617 37.2174 5.1625 37.5687C5.91877 37.95 6.72766 38.2165 7.5625 38.3593C8.39062 38.5187 9.3 38.5187 10.1281 38.5968H29.8844C30.745 38.5962 31.6038 38.5167 32.45 38.3593C33.2848 38.2165 34.0937 37.95 34.85 37.5687C35.6 37.1892 36.2957 36.711 36.9188 36.1468C37.5278 35.5819 38.0315 34.9132 38.4062 34.1718C38.8155 33.4353 39.0956 32.6342 39.2344 31.8031C39.3575 30.9921 39.4399 30.1754 39.4813 29.3562V10.6437H39.4781Z" fill="#F05138"/>
<path d="M26.5617 30.1562C23.0898 32.0718 18.318 32.2687 13.5148 30.3031C9.76991 28.7836 6.56793 26.1739 4.32422 22.8125C5.36694 23.6106 6.50613 24.2742 7.71484 24.7875C12.6742 27.0062 17.6305 26.8531 21.1211 24.7875C16.1523 21.1437 11.9336 16.4062 8.78984 12.5375C8.16946 11.8836 7.61569 11.1697 7.13672 10.4062C10.9367 13.7218 16.9805 17.9062 19.1305 19.0906C16.0607 15.9452 13.2397 12.5663 10.693 8.98433C14.9264 13.0983 19.5849 16.7511 24.5898 19.8812C24.8117 20 24.9836 20.1 25.1211 20.1937C25.2678 19.8355 25.3941 19.4693 25.4992 19.0968C26.6586 15.0687 25.3336 10.4906 22.4398 6.69995C29.1398 10.5656 33.1242 17.8281 31.4555 23.9093C31.4117 24.075 31.3648 24.2218 31.3148 24.3937L31.3742 24.4625C34.6836 28.4093 33.7742 32.5875 33.3586 31.8062C31.5617 28.4375 28.2398 29.4781 26.5617 30.1562Z" fill="#FEFEFE"/>
</g>
<defs>
<clipPath id="clip0_1660_6463">
<rect width="40" height="40" fill="white"/>
</clipPath>
</defs>
</svg>
