<svg width="40" height="40" viewBox="0 0 40 40" fill="none" xmlns="http://www.w3.org/2000/svg">
<path d="M22.4993 11.6667C22.9595 11.6667 23.3325 11.2936 23.3325 10.8333C23.3325 10.3731 22.9595 10 22.4993 10C22.0391 10 21.666 10.3731 21.666 10.8333C21.666 11.2936 22.0391 11.6667 22.4993 11.6667Z" fill="#00A270" stroke="#00A270" stroke-width="2.5" stroke-linecap="round" stroke-linejoin="round"/>
<path d="M29.1672 18.3337C29.6274 18.3337 30.0005 17.9606 30.0005 17.5003C30.0005 17.0401 29.6274 16.667 29.1672 16.667C28.707 16.667 28.334 17.0401 28.334 17.5003C28.334 17.9606 28.707 18.3337 29.1672 18.3337Z" fill="#00A270" stroke="#00A270" stroke-width="2.5" stroke-linecap="round" stroke-linejoin="round"/>
<path d="M14.1672 13.3337C14.6274 13.3337 15.0005 12.9606 15.0005 12.5003C15.0005 12.0401 14.6274 11.667 14.1672 11.667C13.707 11.667 13.334 12.0401 13.334 12.5003C13.334 12.9606 13.707 13.3337 14.1672 13.3337Z" fill="#00A270" stroke="#00A270" stroke-width="2.5" stroke-linecap="round" stroke-linejoin="round"/>
<path d="M10.8332 21.6667C11.2934 21.6667 11.6665 21.2936 11.6665 20.8333C11.6665 20.3731 11.2934 20 10.8332 20C10.3731 20 10 20.3731 10 20.8333C10 21.2936 10.3731 21.6667 10.8332 21.6667Z" fill="#00A270" stroke="#00A270" stroke-width="2.5" stroke-linecap="round" stroke-linejoin="round"/>
<path d="M20.0007 3.33301C10.834 3.33301 3.33398 10.833 3.33398 19.9997C3.33398 29.1663 10.834 36.6663 20.0007 36.6663C21.544 36.6663 22.7473 35.423 22.7473 33.853C22.7473 33.1247 22.4473 32.4613 22.019 31.978C21.5357 31.4963 21.289 30.8913 21.289 30.103C21.2827 29.7362 21.3503 29.3719 21.4877 29.0317C21.6252 28.6916 21.8297 28.3826 22.0892 28.1232C22.3486 27.8638 22.6576 27.6592 22.9977 27.5218C23.3378 27.3843 23.7022 27.3167 24.069 27.323H27.3957C32.4807 27.323 36.654 23.1513 36.654 18.0663C36.609 10.0197 29.1023 3.33301 20.0007 3.33301Z" stroke="#00A270" stroke-width="2.5" stroke-linecap="round" stroke-linejoin="round"/>
</svg>
