<svg width="40" height="40" viewBox="0 0 40 40" fill="none" xmlns="http://www.w3.org/2000/svg">
<path d="M31.6667 11.6667V6.66667C31.6667 6.22464 31.4911 5.80072 31.1785 5.48816C30.8659 5.17559 30.442 5 30 5H8.33333C7.44928 5 6.60143 5.35119 5.97631 5.97631C5.35119 6.60143 5 7.44928 5 8.33333C5 9.21739 5.35119 10.0652 5.97631 10.6904C6.60143 11.3155 7.44928 11.6667 8.33333 11.6667H33.3333C33.7754 11.6667 34.1993 11.8423 34.5118 12.1548C34.8244 12.4674 35 12.8913 35 13.3333V20M35 20H30C29.1159 20 28.2681 20.3512 27.643 20.9763C27.0179 21.6014 26.6667 22.4493 26.6667 23.3333C26.6667 24.2174 27.0179 25.0652 27.643 25.6904C28.2681 26.3155 29.1159 26.6667 30 26.6667H35C35.442 26.6667 35.8659 26.4911 36.1785 26.1785C36.4911 25.866 36.6667 25.442 36.6667 25V21.6667C36.6667 21.2246 36.4911 20.8007 36.1785 20.4882C35.8659 20.1756 35.442 20 35 20Z" stroke="#00A270" stroke-width="4.16489" stroke-linecap="round" stroke-linejoin="round"/>
<path d="M5 8.33337V31.6667C5 32.5508 5.35119 33.3986 5.97631 34.0237C6.60143 34.6488 7.44928 35 8.33333 35H33.3333C33.7754 35 34.1993 34.8244 34.5118 34.5119C34.8244 34.1993 35 33.7754 35 33.3334V26.6667" stroke="#00A270" stroke-width="4.16489" stroke-linecap="round" stroke-linejoin="round"/>
</svg>
